<<<<<<< HEAD
<mxfile host="Electron" modified="2023-06-04T08:10:15.906Z" agent="Mozilla/5.0 (Windows NT 10.0; Win64; x64) AppleWebKit/537.36 (KHTML, like Gecko) draw.io/21.2.8 Chrome/112.0.5615.165 Electron/24.2.0 Safari/537.36" etag="IppQaeod2C_JPkcysJv1" version="21.2.8" type="device" pages="4">
  <diagram name="Systolic FIR" id="nBHrxIWaTGa4mIPTrD2Z">
    <mxGraphModel dx="1607" dy="559" grid="1" gridSize="10" guides="1" tooltips="1" connect="1" arrows="1" fold="1" page="1" pageScale="1" pageWidth="827" pageHeight="1169" math="0" shadow="0">
=======
<mxfile host="Electron" modified="2023-06-04T07:27:45.613Z" agent="Mozilla/5.0 (Windows NT 10.0; Win64; x64) AppleWebKit/537.36 (KHTML, like Gecko) draw.io/21.2.8 Chrome/112.0.5615.165 Electron/24.2.0 Safari/537.36" etag="1peZhpin7B_Bxl6fqrbi" version="21.2.8" type="device" pages="4">
  <diagram name="Systolic FIR" id="nBHrxIWaTGa4mIPTrD2Z">
    <mxGraphModel dx="1405" dy="414" grid="1" gridSize="10" guides="1" tooltips="1" connect="1" arrows="1" fold="1" page="1" pageScale="1" pageWidth="827" pageHeight="1169" math="0" shadow="0">
>>>>>>> 030be3271f37c63af79cdc0ebf7571688434fc72
      <root>
        <mxCell id="0" />
        <mxCell id="1" parent="0" />
        <mxCell id="JmAIR4OpFydR7K1g31q8-10" value="" style="rounded=0;whiteSpace=wrap;html=1;dashed=1;" parent="1" vertex="1">
          <mxGeometry x="50" y="280" width="350" height="360" as="geometry" />
        </mxCell>
        <mxCell id="JmAIR4OpFydR7K1g31q8-4" value="" style="rounded=0;whiteSpace=wrap;html=1;" parent="1" vertex="1">
          <mxGeometry x="120" y="320" width="30" height="50" as="geometry" />
        </mxCell>
        <mxCell id="JmAIR4OpFydR7K1g31q8-5" value="C0" style="rounded=0;whiteSpace=wrap;html=1;fontStyle=1" parent="1" vertex="1">
          <mxGeometry x="120" y="410" width="30" height="50" as="geometry" />
        </mxCell>
        <mxCell id="JmAIR4OpFydR7K1g31q8-6" value="" style="rounded=0;whiteSpace=wrap;html=1;rotation=90;" parent="1" vertex="1">
          <mxGeometry x="180" y="470" width="30" height="50" as="geometry" />
        </mxCell>
        <mxCell id="JmAIR4OpFydR7K1g31q8-7" value="" style="ellipse;whiteSpace=wrap;html=1;aspect=fixed;" parent="1" vertex="1">
          <mxGeometry x="167.5" y="407.5" width="55" height="55" as="geometry" />
        </mxCell>
        <mxCell id="JmAIR4OpFydR7K1g31q8-8" value="" style="endArrow=none;html=1;rounded=0;exitX=0;exitY=1;exitDx=0;exitDy=0;entryX=1;entryY=0;entryDx=0;entryDy=0;" parent="1" source="JmAIR4OpFydR7K1g31q8-7" target="JmAIR4OpFydR7K1g31q8-7" edge="1">
          <mxGeometry width="50" height="50" relative="1" as="geometry">
            <mxPoint x="390" y="360" as="sourcePoint" />
            <mxPoint x="440" y="310" as="targetPoint" />
          </mxGeometry>
        </mxCell>
        <mxCell id="JmAIR4OpFydR7K1g31q8-9" value="" style="endArrow=none;html=1;rounded=0;exitX=0;exitY=0;exitDx=0;exitDy=0;entryX=1;entryY=1;entryDx=0;entryDy=0;" parent="1" source="JmAIR4OpFydR7K1g31q8-7" target="JmAIR4OpFydR7K1g31q8-7" edge="1">
          <mxGeometry width="50" height="50" relative="1" as="geometry">
            <mxPoint x="390" y="360" as="sourcePoint" />
            <mxPoint x="440" y="310" as="targetPoint" />
          </mxGeometry>
        </mxCell>
        <mxCell id="JmAIR4OpFydR7K1g31q8-11" value="" style="rounded=0;whiteSpace=wrap;html=1;" parent="1" vertex="1">
          <mxGeometry x="340" y="550" width="30" height="50" as="geometry" />
        </mxCell>
        <mxCell id="JmAIR4OpFydR7K1g31q8-15" value="&lt;span&gt;&lt;font style=&quot;font-size: 29px;&quot;&gt;+&lt;/font&gt;&lt;/span&gt;" style="rounded=1;whiteSpace=wrap;html=1;rotation=90;fontStyle=0" parent="1" vertex="1">
          <mxGeometry x="240" y="552.5" width="80" height="45" as="geometry" />
        </mxCell>
        <mxCell id="JmAIR4OpFydR7K1g31q8-16" value="" style="endArrow=classic;html=1;rounded=0;entryX=0;entryY=0.5;entryDx=0;entryDy=0;" parent="1" target="JmAIR4OpFydR7K1g31q8-4" edge="1">
          <mxGeometry width="50" height="50" relative="1" as="geometry">
            <mxPoint x="20" y="345" as="sourcePoint" />
            <mxPoint x="440" y="300" as="targetPoint" />
          </mxGeometry>
        </mxCell>
        <mxCell id="JmAIR4OpFydR7K1g31q8-18" value="" style="endArrow=classic;html=1;rounded=0;exitX=1;exitY=0.5;exitDx=0;exitDy=0;entryX=0;entryY=0.5;entryDx=0;entryDy=0;" parent="1" source="JmAIR4OpFydR7K1g31q8-5" target="JmAIR4OpFydR7K1g31q8-7" edge="1">
          <mxGeometry width="50" height="50" relative="1" as="geometry">
            <mxPoint x="390" y="350" as="sourcePoint" />
            <mxPoint x="440" y="300" as="targetPoint" />
          </mxGeometry>
        </mxCell>
        <mxCell id="JmAIR4OpFydR7K1g31q8-19" value="" style="endArrow=classic;html=1;rounded=0;exitX=1;exitY=0.5;exitDx=0;exitDy=0;entryX=0.25;entryY=1;entryDx=0;entryDy=0;" parent="1" source="JmAIR4OpFydR7K1g31q8-6" target="JmAIR4OpFydR7K1g31q8-15" edge="1">
          <mxGeometry width="50" height="50" relative="1" as="geometry">
            <mxPoint x="390" y="350" as="sourcePoint" />
            <mxPoint x="440" y="300" as="targetPoint" />
            <Array as="points">
              <mxPoint x="195" y="555" />
            </Array>
          </mxGeometry>
        </mxCell>
        <mxCell id="JmAIR4OpFydR7K1g31q8-20" value="" style="endArrow=classic;html=1;rounded=0;entryX=0.75;entryY=1;entryDx=0;entryDy=0;exitX=1.2;exitY=0.567;exitDx=0;exitDy=0;exitPerimeter=0;" parent="1" source="JmAIR4OpFydR7K1g31q8-21" target="JmAIR4OpFydR7K1g31q8-15" edge="1">
          <mxGeometry width="50" height="50" relative="1" as="geometry">
            <mxPoint x="50" y="595" as="sourcePoint" />
            <mxPoint x="440" y="300" as="targetPoint" />
          </mxGeometry>
        </mxCell>
        <mxCell id="JmAIR4OpFydR7K1g31q8-21" value="&lt;font style=&quot;font-size: 16px;&quot;&gt;0&lt;/font&gt;" style="text;html=1;align=center;verticalAlign=middle;resizable=0;points=[];autosize=1;strokeColor=none;fillColor=none;fontStyle=1" parent="1" vertex="1">
          <mxGeometry x="-20" y="578" width="30" height="30" as="geometry" />
        </mxCell>
        <mxCell id="JmAIR4OpFydR7K1g31q8-22" value="" style="endArrow=classic;html=1;rounded=0;exitX=0.5;exitY=0;exitDx=0;exitDy=0;entryX=0;entryY=0.5;entryDx=0;entryDy=0;" parent="1" source="JmAIR4OpFydR7K1g31q8-15" target="JmAIR4OpFydR7K1g31q8-11" edge="1">
          <mxGeometry width="50" height="50" relative="1" as="geometry">
            <mxPoint x="390" y="350" as="sourcePoint" />
            <mxPoint x="440" y="300" as="targetPoint" />
          </mxGeometry>
        </mxCell>
        <mxCell id="JmAIR4OpFydR7K1g31q8-23" value="" style="endArrow=classic;html=1;rounded=0;exitX=0.5;exitY=1;exitDx=0;exitDy=0;entryX=0;entryY=0.5;entryDx=0;entryDy=0;" parent="1" source="JmAIR4OpFydR7K1g31q8-7" target="JmAIR4OpFydR7K1g31q8-6" edge="1">
          <mxGeometry width="50" height="50" relative="1" as="geometry">
            <mxPoint x="390" y="350" as="sourcePoint" />
            <mxPoint x="440" y="300" as="targetPoint" />
          </mxGeometry>
        </mxCell>
        <mxCell id="JmAIR4OpFydR7K1g31q8-26" value="" style="rounded=0;whiteSpace=wrap;html=1;dashed=1;" parent="1" vertex="1">
          <mxGeometry x="444" y="280" width="320" height="360" as="geometry" />
        </mxCell>
        <mxCell id="JmAIR4OpFydR7K1g31q8-27" value="" style="rounded=0;whiteSpace=wrap;html=1;" parent="1" vertex="1">
          <mxGeometry x="460" y="320" width="30" height="50" as="geometry" />
        </mxCell>
        <mxCell id="JmAIR4OpFydR7K1g31q8-28" value="C1" style="rounded=0;whiteSpace=wrap;html=1;fontStyle=1" parent="1" vertex="1">
          <mxGeometry x="484" y="410" width="30" height="50" as="geometry" />
        </mxCell>
        <mxCell id="JmAIR4OpFydR7K1g31q8-29" value="" style="rounded=0;whiteSpace=wrap;html=1;rotation=90;" parent="1" vertex="1">
          <mxGeometry x="544" y="470" width="30" height="50" as="geometry" />
        </mxCell>
        <mxCell id="JmAIR4OpFydR7K1g31q8-30" value="" style="ellipse;whiteSpace=wrap;html=1;aspect=fixed;" parent="1" vertex="1">
          <mxGeometry x="531.5" y="407.5" width="55" height="55" as="geometry" />
        </mxCell>
        <mxCell id="JmAIR4OpFydR7K1g31q8-31" value="" style="endArrow=none;html=1;rounded=0;exitX=0;exitY=1;exitDx=0;exitDy=0;entryX=1;entryY=0;entryDx=0;entryDy=0;" parent="1" source="JmAIR4OpFydR7K1g31q8-30" target="JmAIR4OpFydR7K1g31q8-30" edge="1">
          <mxGeometry width="50" height="50" relative="1" as="geometry">
            <mxPoint x="754" y="360" as="sourcePoint" />
            <mxPoint x="804" y="310" as="targetPoint" />
          </mxGeometry>
        </mxCell>
        <mxCell id="JmAIR4OpFydR7K1g31q8-32" value="" style="endArrow=none;html=1;rounded=0;exitX=0;exitY=0;exitDx=0;exitDy=0;entryX=1;entryY=1;entryDx=0;entryDy=0;" parent="1" source="JmAIR4OpFydR7K1g31q8-30" target="JmAIR4OpFydR7K1g31q8-30" edge="1">
          <mxGeometry width="50" height="50" relative="1" as="geometry">
            <mxPoint x="754" y="360" as="sourcePoint" />
            <mxPoint x="804" y="310" as="targetPoint" />
          </mxGeometry>
        </mxCell>
        <mxCell id="JmAIR4OpFydR7K1g31q8-33" value="" style="rounded=0;whiteSpace=wrap;html=1;" parent="1" vertex="1">
          <mxGeometry x="704" y="550" width="30" height="50" as="geometry" />
        </mxCell>
        <mxCell id="JmAIR4OpFydR7K1g31q8-34" value="&lt;span&gt;&lt;font style=&quot;font-size: 29px;&quot;&gt;+&lt;/font&gt;&lt;/span&gt;" style="rounded=1;whiteSpace=wrap;html=1;rotation=90;fontStyle=0" parent="1" vertex="1">
          <mxGeometry x="604" y="552.5" width="80" height="45" as="geometry" />
        </mxCell>
        <mxCell id="JmAIR4OpFydR7K1g31q8-35" value="" style="endArrow=classic;html=1;rounded=0;entryX=0;entryY=0.5;entryDx=0;entryDy=0;" parent="1" source="JmAIR4OpFydR7K1g31q8-45" target="JmAIR4OpFydR7K1g31q8-27" edge="1">
          <mxGeometry width="50" height="50" relative="1" as="geometry">
            <mxPoint x="195" y="345" as="sourcePoint" />
            <mxPoint x="804" y="300" as="targetPoint" />
          </mxGeometry>
        </mxCell>
        <mxCell id="JmAIR4OpFydR7K1g31q8-36" value="" style="endArrow=classic;html=1;rounded=0;exitX=1;exitY=0.5;exitDx=0;exitDy=0;entryX=0;entryY=0.5;entryDx=0;entryDy=0;" parent="1" source="JmAIR4OpFydR7K1g31q8-28" target="JmAIR4OpFydR7K1g31q8-30" edge="1">
          <mxGeometry width="50" height="50" relative="1" as="geometry">
            <mxPoint x="754" y="350" as="sourcePoint" />
            <mxPoint x="804" y="300" as="targetPoint" />
          </mxGeometry>
        </mxCell>
        <mxCell id="JmAIR4OpFydR7K1g31q8-37" value="" style="endArrow=classic;html=1;rounded=0;exitX=1;exitY=0.5;exitDx=0;exitDy=0;entryX=0.25;entryY=1;entryDx=0;entryDy=0;" parent="1" source="JmAIR4OpFydR7K1g31q8-29" target="JmAIR4OpFydR7K1g31q8-34" edge="1">
          <mxGeometry width="50" height="50" relative="1" as="geometry">
            <mxPoint x="754" y="350" as="sourcePoint" />
            <mxPoint x="804" y="300" as="targetPoint" />
            <Array as="points">
              <mxPoint x="559" y="555" />
            </Array>
          </mxGeometry>
        </mxCell>
        <mxCell id="JmAIR4OpFydR7K1g31q8-38" value="" style="endArrow=classic;html=1;rounded=0;entryX=0.75;entryY=1;entryDx=0;entryDy=0;exitX=1;exitY=0.5;exitDx=0;exitDy=0;" parent="1" source="JmAIR4OpFydR7K1g31q8-11" target="JmAIR4OpFydR7K1g31q8-34" edge="1">
          <mxGeometry width="50" height="50" relative="1" as="geometry">
            <mxPoint x="414" y="595" as="sourcePoint" />
            <mxPoint x="804" y="300" as="targetPoint" />
            <Array as="points">
              <mxPoint x="420" y="575" />
              <mxPoint x="420" y="595" />
            </Array>
          </mxGeometry>
        </mxCell>
        <mxCell id="JmAIR4OpFydR7K1g31q8-40" value="" style="endArrow=classic;html=1;rounded=0;exitX=0.5;exitY=0;exitDx=0;exitDy=0;entryX=0;entryY=0.5;entryDx=0;entryDy=0;" parent="1" source="JmAIR4OpFydR7K1g31q8-34" target="JmAIR4OpFydR7K1g31q8-33" edge="1">
          <mxGeometry width="50" height="50" relative="1" as="geometry">
            <mxPoint x="754" y="350" as="sourcePoint" />
            <mxPoint x="804" y="300" as="targetPoint" />
          </mxGeometry>
        </mxCell>
        <mxCell id="JmAIR4OpFydR7K1g31q8-41" value="" style="endArrow=classic;html=1;rounded=0;exitX=0.5;exitY=1;exitDx=0;exitDy=0;entryX=0;entryY=0.5;entryDx=0;entryDy=0;" parent="1" source="JmAIR4OpFydR7K1g31q8-30" target="JmAIR4OpFydR7K1g31q8-29" edge="1">
          <mxGeometry width="50" height="50" relative="1" as="geometry">
            <mxPoint x="754" y="350" as="sourcePoint" />
            <mxPoint x="804" y="300" as="targetPoint" />
          </mxGeometry>
        </mxCell>
        <mxCell id="JmAIR4OpFydR7K1g31q8-46" value="" style="endArrow=classic;html=1;rounded=0;entryDx=0;entryDy=0;" parent="1" target="JmAIR4OpFydR7K1g31q8-45" edge="1">
          <mxGeometry width="50" height="50" relative="1" as="geometry">
            <mxPoint x="195" y="345" as="sourcePoint" />
            <mxPoint x="484" y="345" as="targetPoint" />
          </mxGeometry>
        </mxCell>
        <mxCell id="JmAIR4OpFydR7K1g31q8-45" value="" style="shape=waypoint;sketch=0;fillStyle=solid;size=6;pointerEvents=1;points=[];fillColor=none;resizable=0;rotatable=0;perimeter=centerPerimeter;snapToPoint=1;" parent="1" vertex="1">
          <mxGeometry x="185" y="335" width="20" height="20" as="geometry" />
        </mxCell>
        <mxCell id="JmAIR4OpFydR7K1g31q8-47" value="" style="endArrow=classic;html=1;rounded=0;exitX=0.5;exitY=0.25;exitDx=0;exitDy=0;exitPerimeter=0;entryX=0.5;entryY=0;entryDx=0;entryDy=0;" parent="1" source="JmAIR4OpFydR7K1g31q8-45" target="JmAIR4OpFydR7K1g31q8-7" edge="1">
          <mxGeometry width="50" height="50" relative="1" as="geometry">
            <mxPoint x="390" y="350" as="sourcePoint" />
            <mxPoint x="440" y="300" as="targetPoint" />
          </mxGeometry>
        </mxCell>
        <mxCell id="JmAIR4OpFydR7K1g31q8-48" value="" style="endArrow=none;html=1;rounded=0;exitX=1;exitY=0.5;exitDx=0;exitDy=0;" parent="1" source="JmAIR4OpFydR7K1g31q8-4" edge="1">
          <mxGeometry width="50" height="50" relative="1" as="geometry">
            <mxPoint x="390" y="350" as="sourcePoint" />
            <mxPoint x="200" y="345" as="targetPoint" />
          </mxGeometry>
        </mxCell>
        <mxCell id="JmAIR4OpFydR7K1g31q8-49" value="" style="rounded=0;whiteSpace=wrap;html=1;dashed=1;" parent="1" vertex="1">
          <mxGeometry x="810" y="280" width="320" height="360" as="geometry" />
        </mxCell>
        <mxCell id="JmAIR4OpFydR7K1g31q8-51" value="C2" style="rounded=0;whiteSpace=wrap;html=1;fontStyle=1" parent="1" vertex="1">
          <mxGeometry x="850" y="410" width="30" height="50" as="geometry" />
        </mxCell>
        <mxCell id="JmAIR4OpFydR7K1g31q8-52" value="" style="rounded=0;whiteSpace=wrap;html=1;rotation=90;" parent="1" vertex="1">
          <mxGeometry x="910" y="470" width="30" height="50" as="geometry" />
        </mxCell>
        <mxCell id="JmAIR4OpFydR7K1g31q8-53" value="" style="ellipse;whiteSpace=wrap;html=1;aspect=fixed;" parent="1" vertex="1">
          <mxGeometry x="897.5" y="407.5" width="55" height="55" as="geometry" />
        </mxCell>
        <mxCell id="JmAIR4OpFydR7K1g31q8-54" value="" style="endArrow=none;html=1;rounded=0;exitX=0;exitY=1;exitDx=0;exitDy=0;entryX=1;entryY=0;entryDx=0;entryDy=0;" parent="1" source="JmAIR4OpFydR7K1g31q8-53" target="JmAIR4OpFydR7K1g31q8-53" edge="1">
          <mxGeometry width="50" height="50" relative="1" as="geometry">
            <mxPoint x="1120" y="360" as="sourcePoint" />
            <mxPoint x="1170" y="310" as="targetPoint" />
          </mxGeometry>
        </mxCell>
        <mxCell id="JmAIR4OpFydR7K1g31q8-55" value="" style="endArrow=none;html=1;rounded=0;exitX=0;exitY=0;exitDx=0;exitDy=0;entryX=1;entryY=1;entryDx=0;entryDy=0;" parent="1" source="JmAIR4OpFydR7K1g31q8-53" target="JmAIR4OpFydR7K1g31q8-53" edge="1">
          <mxGeometry width="50" height="50" relative="1" as="geometry">
            <mxPoint x="1120" y="360" as="sourcePoint" />
            <mxPoint x="1170" y="310" as="targetPoint" />
          </mxGeometry>
        </mxCell>
        <mxCell id="JmAIR4OpFydR7K1g31q8-56" value="" style="rounded=0;whiteSpace=wrap;html=1;" parent="1" vertex="1">
          <mxGeometry x="1070" y="550" width="30" height="50" as="geometry" />
        </mxCell>
        <mxCell id="JmAIR4OpFydR7K1g31q8-57" value="&lt;span&gt;&lt;font style=&quot;font-size: 29px;&quot;&gt;+&lt;/font&gt;&lt;/span&gt;" style="rounded=1;whiteSpace=wrap;html=1;rotation=90;fontStyle=0" parent="1" vertex="1">
          <mxGeometry x="970" y="552.5" width="80" height="45" as="geometry" />
        </mxCell>
        <mxCell id="JmAIR4OpFydR7K1g31q8-58" value="" style="endArrow=classic;html=1;rounded=0;exitX=0.35;exitY=0.5;exitDx=0;exitDy=0;exitPerimeter=0;" parent="1" source="JmAIR4OpFydR7K1g31q8-50" edge="1">
          <mxGeometry width="50" height="50" relative="1" as="geometry">
            <mxPoint x="780" y="345" as="sourcePoint" />
            <mxPoint x="830" y="345" as="targetPoint" />
          </mxGeometry>
        </mxCell>
        <mxCell id="JmAIR4OpFydR7K1g31q8-59" value="" style="endArrow=classic;html=1;rounded=0;exitX=1;exitY=0.5;exitDx=0;exitDy=0;entryX=0;entryY=0.5;entryDx=0;entryDy=0;" parent="1" source="JmAIR4OpFydR7K1g31q8-51" target="JmAIR4OpFydR7K1g31q8-53" edge="1">
          <mxGeometry width="50" height="50" relative="1" as="geometry">
            <mxPoint x="1120" y="350" as="sourcePoint" />
            <mxPoint x="1170" y="300" as="targetPoint" />
          </mxGeometry>
        </mxCell>
        <mxCell id="JmAIR4OpFydR7K1g31q8-60" value="" style="endArrow=classic;html=1;rounded=0;exitX=1;exitY=0.5;exitDx=0;exitDy=0;entryX=0.25;entryY=1;entryDx=0;entryDy=0;" parent="1" source="JmAIR4OpFydR7K1g31q8-52" target="JmAIR4OpFydR7K1g31q8-57" edge="1">
          <mxGeometry width="50" height="50" relative="1" as="geometry">
            <mxPoint x="1120" y="350" as="sourcePoint" />
            <mxPoint x="1170" y="300" as="targetPoint" />
            <Array as="points">
              <mxPoint x="925" y="555" />
            </Array>
          </mxGeometry>
        </mxCell>
        <mxCell id="JmAIR4OpFydR7K1g31q8-61" value="" style="endArrow=classic;html=1;rounded=0;entryX=0.75;entryY=1;entryDx=0;entryDy=0;exitX=1;exitY=0.5;exitDx=0;exitDy=0;" parent="1" source="JmAIR4OpFydR7K1g31q8-33" target="JmAIR4OpFydR7K1g31q8-57" edge="1">
          <mxGeometry width="50" height="50" relative="1" as="geometry">
            <mxPoint x="780" y="595" as="sourcePoint" />
            <mxPoint x="1170" y="300" as="targetPoint" />
            <Array as="points">
              <mxPoint x="780" y="575" />
              <mxPoint x="780" y="595" />
            </Array>
          </mxGeometry>
        </mxCell>
        <mxCell id="JmAIR4OpFydR7K1g31q8-63" value="" style="endArrow=classic;html=1;rounded=0;exitX=0.5;exitY=0;exitDx=0;exitDy=0;entryX=0;entryY=0.5;entryDx=0;entryDy=0;" parent="1" source="JmAIR4OpFydR7K1g31q8-57" target="JmAIR4OpFydR7K1g31q8-56" edge="1">
          <mxGeometry width="50" height="50" relative="1" as="geometry">
            <mxPoint x="1120" y="350" as="sourcePoint" />
            <mxPoint x="1170" y="300" as="targetPoint" />
          </mxGeometry>
        </mxCell>
        <mxCell id="JmAIR4OpFydR7K1g31q8-64" value="" style="endArrow=classic;html=1;rounded=0;exitX=0.5;exitY=1;exitDx=0;exitDy=0;entryX=0;entryY=0.5;entryDx=0;entryDy=0;" parent="1" source="JmAIR4OpFydR7K1g31q8-53" target="JmAIR4OpFydR7K1g31q8-52" edge="1">
          <mxGeometry width="50" height="50" relative="1" as="geometry">
            <mxPoint x="1120" y="350" as="sourcePoint" />
            <mxPoint x="1170" y="300" as="targetPoint" />
          </mxGeometry>
        </mxCell>
        <mxCell id="JmAIR4OpFydR7K1g31q8-65" value="" style="rounded=0;whiteSpace=wrap;html=1;dashed=1;" parent="1" vertex="1">
          <mxGeometry x="1174" y="280" width="320" height="360" as="geometry" />
        </mxCell>
        <mxCell id="JmAIR4OpFydR7K1g31q8-66" value="" style="rounded=0;whiteSpace=wrap;html=1;" parent="1" vertex="1">
          <mxGeometry x="1190" y="320" width="30" height="50" as="geometry" />
        </mxCell>
        <mxCell id="JmAIR4OpFydR7K1g31q8-67" value="C3" style="rounded=0;whiteSpace=wrap;html=1;fontStyle=1" parent="1" vertex="1">
          <mxGeometry x="1214" y="410" width="30" height="50" as="geometry" />
        </mxCell>
        <mxCell id="JmAIR4OpFydR7K1g31q8-68" value="" style="rounded=0;whiteSpace=wrap;html=1;rotation=90;" parent="1" vertex="1">
          <mxGeometry x="1274" y="470" width="30" height="50" as="geometry" />
        </mxCell>
        <mxCell id="JmAIR4OpFydR7K1g31q8-69" value="" style="ellipse;whiteSpace=wrap;html=1;aspect=fixed;" parent="1" vertex="1">
          <mxGeometry x="1261.5" y="407.5" width="55" height="55" as="geometry" />
        </mxCell>
        <mxCell id="JmAIR4OpFydR7K1g31q8-70" value="" style="endArrow=none;html=1;rounded=0;exitX=0;exitY=1;exitDx=0;exitDy=0;entryX=1;entryY=0;entryDx=0;entryDy=0;" parent="1" source="JmAIR4OpFydR7K1g31q8-69" target="JmAIR4OpFydR7K1g31q8-69" edge="1">
          <mxGeometry width="50" height="50" relative="1" as="geometry">
            <mxPoint x="1484" y="360" as="sourcePoint" />
            <mxPoint x="1534" y="310" as="targetPoint" />
          </mxGeometry>
        </mxCell>
        <mxCell id="JmAIR4OpFydR7K1g31q8-71" value="" style="endArrow=none;html=1;rounded=0;exitX=0;exitY=0;exitDx=0;exitDy=0;entryX=1;entryY=1;entryDx=0;entryDy=0;" parent="1" source="JmAIR4OpFydR7K1g31q8-69" target="JmAIR4OpFydR7K1g31q8-69" edge="1">
          <mxGeometry width="50" height="50" relative="1" as="geometry">
            <mxPoint x="1484" y="360" as="sourcePoint" />
            <mxPoint x="1534" y="310" as="targetPoint" />
          </mxGeometry>
        </mxCell>
        <mxCell id="JmAIR4OpFydR7K1g31q8-72" value="" style="rounded=0;whiteSpace=wrap;html=1;" parent="1" vertex="1">
          <mxGeometry x="1434" y="550" width="30" height="50" as="geometry" />
        </mxCell>
        <mxCell id="JmAIR4OpFydR7K1g31q8-73" value="&lt;span&gt;&lt;font style=&quot;font-size: 29px;&quot;&gt;+&lt;/font&gt;&lt;/span&gt;" style="rounded=1;whiteSpace=wrap;html=1;rotation=90;fontStyle=0" parent="1" vertex="1">
          <mxGeometry x="1334" y="552.5" width="80" height="45" as="geometry" />
        </mxCell>
        <mxCell id="JmAIR4OpFydR7K1g31q8-74" value="" style="endArrow=classic;html=1;rounded=0;" parent="1" source="JmAIR4OpFydR7K1g31q8-82" edge="1">
          <mxGeometry width="50" height="50" relative="1" as="geometry">
            <mxPoint x="925" y="345" as="sourcePoint" />
            <mxPoint x="1190" y="345" as="targetPoint" />
          </mxGeometry>
        </mxCell>
        <mxCell id="JmAIR4OpFydR7K1g31q8-75" value="" style="endArrow=classic;html=1;rounded=0;exitX=1;exitY=0.5;exitDx=0;exitDy=0;entryX=0;entryY=0.5;entryDx=0;entryDy=0;" parent="1" source="JmAIR4OpFydR7K1g31q8-67" target="JmAIR4OpFydR7K1g31q8-69" edge="1">
          <mxGeometry width="50" height="50" relative="1" as="geometry">
            <mxPoint x="1484" y="350" as="sourcePoint" />
            <mxPoint x="1534" y="300" as="targetPoint" />
          </mxGeometry>
        </mxCell>
        <mxCell id="JmAIR4OpFydR7K1g31q8-76" value="" style="endArrow=classic;html=1;rounded=0;exitX=1;exitY=0.5;exitDx=0;exitDy=0;entryX=0.25;entryY=1;entryDx=0;entryDy=0;" parent="1" source="JmAIR4OpFydR7K1g31q8-68" target="JmAIR4OpFydR7K1g31q8-73" edge="1">
          <mxGeometry width="50" height="50" relative="1" as="geometry">
            <mxPoint x="1484" y="350" as="sourcePoint" />
            <mxPoint x="1534" y="300" as="targetPoint" />
            <Array as="points">
              <mxPoint x="1289" y="555" />
            </Array>
          </mxGeometry>
        </mxCell>
        <mxCell id="JmAIR4OpFydR7K1g31q8-77" value="" style="endArrow=classic;html=1;rounded=0;entryX=0.75;entryY=1;entryDx=0;entryDy=0;exitX=1;exitY=0.5;exitDx=0;exitDy=0;" parent="1" source="JmAIR4OpFydR7K1g31q8-56" target="JmAIR4OpFydR7K1g31q8-73" edge="1">
          <mxGeometry width="50" height="50" relative="1" as="geometry">
            <mxPoint x="1144" y="595" as="sourcePoint" />
            <mxPoint x="1534" y="300" as="targetPoint" />
            <Array as="points">
              <mxPoint x="1150" y="575" />
              <mxPoint x="1150" y="595" />
            </Array>
          </mxGeometry>
        </mxCell>
        <mxCell id="JmAIR4OpFydR7K1g31q8-78" value="" style="endArrow=classic;html=1;rounded=0;exitX=0.5;exitY=0;exitDx=0;exitDy=0;entryX=0;entryY=0.5;entryDx=0;entryDy=0;" parent="1" source="JmAIR4OpFydR7K1g31q8-73" target="JmAIR4OpFydR7K1g31q8-72" edge="1">
          <mxGeometry width="50" height="50" relative="1" as="geometry">
            <mxPoint x="1484" y="350" as="sourcePoint" />
            <mxPoint x="1534" y="300" as="targetPoint" />
          </mxGeometry>
        </mxCell>
        <mxCell id="JmAIR4OpFydR7K1g31q8-79" value="" style="endArrow=classic;html=1;rounded=0;exitX=0.5;exitY=1;exitDx=0;exitDy=0;entryX=0;entryY=0.5;entryDx=0;entryDy=0;" parent="1" source="JmAIR4OpFydR7K1g31q8-69" target="JmAIR4OpFydR7K1g31q8-68" edge="1">
          <mxGeometry width="50" height="50" relative="1" as="geometry">
            <mxPoint x="1484" y="350" as="sourcePoint" />
            <mxPoint x="1534" y="300" as="targetPoint" />
          </mxGeometry>
        </mxCell>
        <mxCell id="JmAIR4OpFydR7K1g31q8-81" value="" style="endArrow=classic;html=1;rounded=0;entryDx=0;entryDy=0;" parent="1" target="JmAIR4OpFydR7K1g31q8-82" edge="1">
          <mxGeometry width="50" height="50" relative="1" as="geometry">
            <mxPoint x="925" y="345" as="sourcePoint" />
            <mxPoint x="1214" y="345" as="targetPoint" />
          </mxGeometry>
        </mxCell>
        <mxCell id="JmAIR4OpFydR7K1g31q8-82" value="" style="shape=waypoint;sketch=0;fillStyle=solid;size=6;pointerEvents=1;points=[];fillColor=none;resizable=0;rotatable=0;perimeter=centerPerimeter;snapToPoint=1;" parent="1" vertex="1">
          <mxGeometry x="915" y="335" width="20" height="20" as="geometry" />
        </mxCell>
        <mxCell id="JmAIR4OpFydR7K1g31q8-83" value="" style="endArrow=classic;html=1;rounded=0;exitX=0.5;exitY=0.25;exitDx=0;exitDy=0;exitPerimeter=0;entryX=0.5;entryY=0;entryDx=0;entryDy=0;" parent="1" source="JmAIR4OpFydR7K1g31q8-82" target="JmAIR4OpFydR7K1g31q8-53" edge="1">
          <mxGeometry width="50" height="50" relative="1" as="geometry">
            <mxPoint x="1120" y="350" as="sourcePoint" />
            <mxPoint x="1170" y="300" as="targetPoint" />
          </mxGeometry>
        </mxCell>
        <mxCell id="JmAIR4OpFydR7K1g31q8-84" value="" style="endArrow=none;html=1;rounded=0;exitX=1;exitY=0.5;exitDx=0;exitDy=0;" parent="1" source="by4jPPsHF0q0PhyXpUfG-3" edge="1">
          <mxGeometry width="50" height="50" relative="1" as="geometry">
            <mxPoint x="890" y="345" as="sourcePoint" />
            <mxPoint x="930" y="345" as="targetPoint" />
          </mxGeometry>
        </mxCell>
        <mxCell id="JmAIR4OpFydR7K1g31q8-85" value="" style="shape=waypoint;sketch=0;fillStyle=solid;size=6;pointerEvents=1;points=[];fillColor=none;resizable=0;rotatable=0;perimeter=centerPerimeter;snapToPoint=1;" parent="1" vertex="1">
          <mxGeometry x="549" y="335" width="20" height="20" as="geometry" />
        </mxCell>
        <mxCell id="JmAIR4OpFydR7K1g31q8-86" value="" style="endArrow=none;html=1;rounded=0;entryX=0.55;entryY=0.65;entryDx=0;entryDy=0;entryPerimeter=0;exitX=1;exitY=0.5;exitDx=0;exitDy=0;" parent="1" source="by4jPPsHF0q0PhyXpUfG-1" target="JmAIR4OpFydR7K1g31q8-85" edge="1">
          <mxGeometry width="50" height="50" relative="1" as="geometry">
            <mxPoint x="530" y="345" as="sourcePoint" />
            <mxPoint x="840" y="300" as="targetPoint" />
          </mxGeometry>
        </mxCell>
        <mxCell id="JmAIR4OpFydR7K1g31q8-87" value="" style="endArrow=classic;html=1;rounded=0;exitX=0.3;exitY=0.5;exitDx=0;exitDy=0;exitPerimeter=0;entryX=0.5;entryY=0;entryDx=0;entryDy=0;" parent="1" source="JmAIR4OpFydR7K1g31q8-85" target="JmAIR4OpFydR7K1g31q8-30" edge="1">
          <mxGeometry width="50" height="50" relative="1" as="geometry">
            <mxPoint x="790" y="350" as="sourcePoint" />
            <mxPoint x="840" y="300" as="targetPoint" />
          </mxGeometry>
        </mxCell>
        <mxCell id="JmAIR4OpFydR7K1g31q8-88" value="" style="rounded=0;whiteSpace=wrap;html=1;dashed=1;" parent="1" vertex="1">
          <mxGeometry x="1540" y="280" width="320" height="360" as="geometry" />
        </mxCell>
        <mxCell id="JmAIR4OpFydR7K1g31q8-89" value="" style="rounded=0;whiteSpace=wrap;html=1;" parent="1" vertex="1">
          <mxGeometry x="1560" y="320" width="30" height="50" as="geometry" />
        </mxCell>
        <mxCell id="JmAIR4OpFydR7K1g31q8-90" value="C4" style="rounded=0;whiteSpace=wrap;html=1;fontStyle=1" parent="1" vertex="1">
          <mxGeometry x="1580" y="410" width="30" height="50" as="geometry" />
        </mxCell>
        <mxCell id="JmAIR4OpFydR7K1g31q8-91" value="" style="rounded=0;whiteSpace=wrap;html=1;rotation=90;" parent="1" vertex="1">
          <mxGeometry x="1640" y="470" width="30" height="50" as="geometry" />
        </mxCell>
        <mxCell id="JmAIR4OpFydR7K1g31q8-92" value="" style="ellipse;whiteSpace=wrap;html=1;aspect=fixed;" parent="1" vertex="1">
          <mxGeometry x="1627.5" y="407.5" width="55" height="55" as="geometry" />
        </mxCell>
        <mxCell id="JmAIR4OpFydR7K1g31q8-93" value="" style="endArrow=none;html=1;rounded=0;exitX=0;exitY=1;exitDx=0;exitDy=0;entryX=1;entryY=0;entryDx=0;entryDy=0;" parent="1" source="JmAIR4OpFydR7K1g31q8-92" target="JmAIR4OpFydR7K1g31q8-92" edge="1">
          <mxGeometry width="50" height="50" relative="1" as="geometry">
            <mxPoint x="1850" y="360" as="sourcePoint" />
            <mxPoint x="1900" y="310" as="targetPoint" />
          </mxGeometry>
        </mxCell>
        <mxCell id="JmAIR4OpFydR7K1g31q8-94" value="" style="endArrow=none;html=1;rounded=0;exitX=0;exitY=0;exitDx=0;exitDy=0;entryX=1;entryY=1;entryDx=0;entryDy=0;" parent="1" source="JmAIR4OpFydR7K1g31q8-92" target="JmAIR4OpFydR7K1g31q8-92" edge="1">
          <mxGeometry width="50" height="50" relative="1" as="geometry">
            <mxPoint x="1850" y="360" as="sourcePoint" />
            <mxPoint x="1900" y="310" as="targetPoint" />
          </mxGeometry>
        </mxCell>
        <mxCell id="JmAIR4OpFydR7K1g31q8-95" value="" style="rounded=0;whiteSpace=wrap;html=1;" parent="1" vertex="1">
          <mxGeometry x="1800" y="550" width="30" height="50" as="geometry" />
        </mxCell>
        <mxCell id="JmAIR4OpFydR7K1g31q8-96" value="&lt;span&gt;&lt;font style=&quot;font-size: 29px;&quot;&gt;+&lt;/font&gt;&lt;/span&gt;" style="rounded=1;whiteSpace=wrap;html=1;rotation=90;fontStyle=0" parent="1" vertex="1">
          <mxGeometry x="1700" y="552.5" width="80" height="45" as="geometry" />
        </mxCell>
        <mxCell id="JmAIR4OpFydR7K1g31q8-97" value="" style="endArrow=classic;html=1;rounded=0;exitX=1;exitY=0.5;exitDx=0;exitDy=0;entryX=0;entryY=0.5;entryDx=0;entryDy=0;" parent="1" source="JmAIR4OpFydR7K1g31q8-90" target="JmAIR4OpFydR7K1g31q8-92" edge="1">
          <mxGeometry width="50" height="50" relative="1" as="geometry">
            <mxPoint x="1850" y="350" as="sourcePoint" />
            <mxPoint x="1900" y="300" as="targetPoint" />
          </mxGeometry>
        </mxCell>
        <mxCell id="JmAIR4OpFydR7K1g31q8-98" value="" style="endArrow=classic;html=1;rounded=0;exitX=1;exitY=0.5;exitDx=0;exitDy=0;entryX=0.25;entryY=1;entryDx=0;entryDy=0;" parent="1" source="JmAIR4OpFydR7K1g31q8-91" target="JmAIR4OpFydR7K1g31q8-96" edge="1">
          <mxGeometry width="50" height="50" relative="1" as="geometry">
            <mxPoint x="1850" y="350" as="sourcePoint" />
            <mxPoint x="1900" y="300" as="targetPoint" />
            <Array as="points">
              <mxPoint x="1655" y="555" />
            </Array>
          </mxGeometry>
        </mxCell>
        <mxCell id="JmAIR4OpFydR7K1g31q8-99" value="" style="endArrow=classic;html=1;rounded=0;exitX=0.5;exitY=0;exitDx=0;exitDy=0;entryX=0;entryY=0.5;entryDx=0;entryDy=0;" parent="1" source="JmAIR4OpFydR7K1g31q8-96" target="JmAIR4OpFydR7K1g31q8-95" edge="1">
          <mxGeometry width="50" height="50" relative="1" as="geometry">
            <mxPoint x="1850" y="350" as="sourcePoint" />
            <mxPoint x="1900" y="300" as="targetPoint" />
          </mxGeometry>
        </mxCell>
        <mxCell id="JmAIR4OpFydR7K1g31q8-100" value="" style="endArrow=classic;html=1;rounded=0;exitX=0.5;exitY=1;exitDx=0;exitDy=0;entryX=0;entryY=0.5;entryDx=0;entryDy=0;" parent="1" source="JmAIR4OpFydR7K1g31q8-92" target="JmAIR4OpFydR7K1g31q8-91" edge="1">
          <mxGeometry width="50" height="50" relative="1" as="geometry">
            <mxPoint x="1850" y="350" as="sourcePoint" />
            <mxPoint x="1900" y="300" as="targetPoint" />
          </mxGeometry>
        </mxCell>
        <mxCell id="JmAIR4OpFydR7K1g31q8-101" value="" style="endArrow=classic;html=1;rounded=0;entryX=0.5;entryY=0;entryDx=0;entryDy=0;exitX=1;exitY=0.5;exitDx=0;exitDy=0;" parent="1" source="by4jPPsHF0q0PhyXpUfG-6" target="JmAIR4OpFydR7K1g31q8-92" edge="1">
          <mxGeometry width="50" height="50" relative="1" as="geometry">
            <mxPoint x="1630" y="345" as="sourcePoint" />
            <mxPoint x="1900" y="300" as="targetPoint" />
            <Array as="points">
              <mxPoint x="1655" y="345" />
            </Array>
          </mxGeometry>
        </mxCell>
        <mxCell id="JmAIR4OpFydR7K1g31q8-102" value="" style="shape=waypoint;sketch=0;fillStyle=solid;size=6;pointerEvents=1;points=[];fillColor=none;resizable=0;rotatable=0;perimeter=centerPerimeter;snapToPoint=1;" parent="1" vertex="1">
          <mxGeometry x="1279" y="335" width="20" height="20" as="geometry" />
        </mxCell>
        <mxCell id="JmAIR4OpFydR7K1g31q8-103" value="" style="endArrow=none;html=1;rounded=0;entryX=0.55;entryY=0.5;entryDx=0;entryDy=0;entryPerimeter=0;" parent="1" target="JmAIR4OpFydR7K1g31q8-102" edge="1">
          <mxGeometry width="50" height="50" relative="1" as="geometry">
            <mxPoint x="1250" y="345" as="sourcePoint" />
            <mxPoint x="1440" y="300" as="targetPoint" />
          </mxGeometry>
        </mxCell>
        <mxCell id="JmAIR4OpFydR7K1g31q8-104" value="" style="endArrow=classic;html=1;rounded=0;exitX=0.95;exitY=0.6;exitDx=0;exitDy=0;exitPerimeter=0;entryX=0.5;entryY=0;entryDx=0;entryDy=0;" parent="1" source="JmAIR4OpFydR7K1g31q8-102" target="JmAIR4OpFydR7K1g31q8-69" edge="1">
          <mxGeometry width="50" height="50" relative="1" as="geometry">
            <mxPoint x="1390" y="350" as="sourcePoint" />
            <mxPoint x="1440" y="300" as="targetPoint" />
          </mxGeometry>
        </mxCell>
        <mxCell id="JmAIR4OpFydR7K1g31q8-105" value="" style="endArrow=classic;html=1;rounded=0;exitX=0.4;exitY=0.55;exitDx=0;exitDy=0;exitPerimeter=0;" parent="1" source="JmAIR4OpFydR7K1g31q8-102" edge="1">
          <mxGeometry width="50" height="50" relative="1" as="geometry">
            <mxPoint x="1390" y="350" as="sourcePoint" />
            <mxPoint x="1560" y="345" as="targetPoint" />
          </mxGeometry>
        </mxCell>
        <mxCell id="JmAIR4OpFydR7K1g31q8-106" value="" style="endArrow=classic;html=1;rounded=0;exitX=1;exitY=0.5;exitDx=0;exitDy=0;entryX=0.75;entryY=1;entryDx=0;entryDy=0;" parent="1" source="JmAIR4OpFydR7K1g31q8-72" target="JmAIR4OpFydR7K1g31q8-96" edge="1">
          <mxGeometry width="50" height="50" relative="1" as="geometry">
            <mxPoint x="1390" y="350" as="sourcePoint" />
            <mxPoint x="1440" y="300" as="targetPoint" />
            <Array as="points">
              <mxPoint x="1510" y="575" />
              <mxPoint x="1510" y="595" />
            </Array>
          </mxGeometry>
        </mxCell>
        <mxCell id="JmAIR4OpFydR7K1g31q8-107" value="" style="endArrow=classic;html=1;rounded=0;exitX=1;exitY=0.5;exitDx=0;exitDy=0;" parent="1" source="JmAIR4OpFydR7K1g31q8-95" edge="1">
          <mxGeometry width="50" height="50" relative="1" as="geometry">
            <mxPoint x="1990" y="350" as="sourcePoint" />
            <mxPoint x="1920" y="575" as="targetPoint" />
          </mxGeometry>
        </mxCell>
        <mxCell id="JmAIR4OpFydR7K1g31q8-108" value="&lt;font style=&quot;font-size: 19px;&quot;&gt;DSP48e1&lt;/font&gt;" style="text;html=1;align=center;verticalAlign=middle;resizable=0;points=[];autosize=1;strokeColor=none;fillColor=none;fontStyle=1" parent="1" vertex="1">
          <mxGeometry x="300" y="280" width="100" height="40" as="geometry" />
        </mxCell>
        <mxCell id="JmAIR4OpFydR7K1g31q8-109" value="&lt;font style=&quot;font-size: 19px;&quot;&gt;DSP48e1&lt;/font&gt;" style="text;html=1;align=center;verticalAlign=middle;resizable=0;points=[];autosize=1;strokeColor=none;fillColor=none;fontStyle=1" parent="1" vertex="1">
          <mxGeometry x="664" y="280" width="100" height="40" as="geometry" />
        </mxCell>
        <mxCell id="JmAIR4OpFydR7K1g31q8-110" value="&lt;font style=&quot;font-size: 19px;&quot;&gt;DSP48e1&lt;/font&gt;" style="text;html=1;align=center;verticalAlign=middle;resizable=0;points=[];autosize=1;strokeColor=none;fillColor=none;fontStyle=1" parent="1" vertex="1">
          <mxGeometry x="1030" y="280" width="100" height="40" as="geometry" />
        </mxCell>
        <mxCell id="JmAIR4OpFydR7K1g31q8-111" value="&lt;font style=&quot;font-size: 19px;&quot;&gt;DSP48e1&lt;/font&gt;" style="text;html=1;align=center;verticalAlign=middle;resizable=0;points=[];autosize=1;strokeColor=none;fillColor=none;fontStyle=1" parent="1" vertex="1">
          <mxGeometry x="1394" y="280" width="100" height="40" as="geometry" />
        </mxCell>
        <mxCell id="JmAIR4OpFydR7K1g31q8-112" value="&lt;font style=&quot;font-size: 19px;&quot;&gt;DSP48e1&lt;/font&gt;" style="text;html=1;align=center;verticalAlign=middle;resizable=0;points=[];autosize=1;strokeColor=none;fillColor=none;fontStyle=1" parent="1" vertex="1">
          <mxGeometry x="1760" y="280" width="100" height="40" as="geometry" />
        </mxCell>
        <mxCell id="JmAIR4OpFydR7K1g31q8-113" value="&lt;font style=&quot;font-size: 16px;&quot;&gt;D[47:0]&lt;/font&gt;" style="text;html=1;align=center;verticalAlign=middle;resizable=0;points=[];autosize=1;strokeColor=none;fillColor=none;fontStyle=1" parent="1" vertex="1">
          <mxGeometry x="1870" y="538" width="80" height="30" as="geometry" />
        </mxCell>
        <mxCell id="JmAIR4OpFydR7K1g31q8-114" value="&lt;b&gt;&lt;font style=&quot;font-size: 16px;&quot;&gt;A[17:0]&lt;/font&gt;&lt;/b&gt;" style="text;html=1;align=center;verticalAlign=middle;resizable=0;points=[];autosize=1;strokeColor=none;fillColor=none;" parent="1" vertex="1">
          <mxGeometry x="-70" y="330" width="80" height="30" as="geometry" />
        </mxCell>
        <mxCell id="JmAIR4OpFydR7K1g31q8-115" value="&lt;b&gt;&lt;font style=&quot;font-size: 16px;&quot;&gt;B&lt;/font&gt;&lt;/b&gt;" style="text;html=1;align=center;verticalAlign=middle;resizable=0;points=[];autosize=1;strokeColor=none;fillColor=none;" parent="1" vertex="1">
          <mxGeometry x="444" y="567.5" width="40" height="30" as="geometry" />
        </mxCell>
        <mxCell id="JmAIR4OpFydR7K1g31q8-116" value="&lt;b&gt;&lt;font style=&quot;font-size: 16px;&quot;&gt;B&lt;/font&gt;&lt;/b&gt;" style="text;html=1;align=center;verticalAlign=middle;resizable=0;points=[];autosize=1;strokeColor=none;fillColor=none;" parent="1" vertex="1">
          <mxGeometry x="810" y="568" width="40" height="30" as="geometry" />
        </mxCell>
        <mxCell id="JmAIR4OpFydR7K1g31q8-117" value="&lt;b&gt;&lt;font style=&quot;font-size: 16px;&quot;&gt;B&lt;/font&gt;&lt;/b&gt;" style="text;html=1;align=center;verticalAlign=middle;resizable=0;points=[];autosize=1;strokeColor=none;fillColor=none;" parent="1" vertex="1">
          <mxGeometry x="1174" y="567.5" width="40" height="30" as="geometry" />
        </mxCell>
        <mxCell id="JmAIR4OpFydR7K1g31q8-119" value="&lt;b&gt;&lt;font style=&quot;font-size: 16px;&quot;&gt;B&lt;/font&gt;&lt;/b&gt;" style="text;html=1;align=center;verticalAlign=middle;resizable=0;points=[];autosize=1;strokeColor=none;fillColor=none;" parent="1" vertex="1">
          <mxGeometry x="1540" y="568" width="40" height="30" as="geometry" />
        </mxCell>
        <mxCell id="JmAIR4OpFydR7K1g31q8-120" value="&lt;b&gt;&lt;font style=&quot;font-size: 16px;&quot;&gt;B[47:0]&lt;/font&gt;&lt;/b&gt;" style="text;html=1;align=center;verticalAlign=middle;resizable=0;points=[];autosize=1;strokeColor=none;fillColor=none;" parent="1" vertex="1">
          <mxGeometry x="80" y="570" width="80" height="30" as="geometry" />
        </mxCell>
        <mxCell id="JmAIR4OpFydR7K1g31q8-122" value="" style="shape=curlyBracket;whiteSpace=wrap;html=1;rounded=1;labelPosition=left;verticalLabelPosition=middle;align=right;verticalAlign=middle;" parent="1" vertex="1">
          <mxGeometry x="90" y="410" width="20" height="50" as="geometry" />
        </mxCell>
        <mxCell id="JmAIR4OpFydR7K1g31q8-124" value="&lt;b style=&quot;border-color: var(--border-color); color: rgb(0, 0, 0); font-family: Helvetica; font-size: 12px; font-style: normal; font-variant-ligatures: normal; font-variant-caps: normal; letter-spacing: normal; orphans: 2; text-align: center; text-indent: 0px; text-transform: none; widows: 2; word-spacing: 0px; -webkit-text-stroke-width: 0px; background-color: rgb(251, 251, 251); text-decoration-thickness: initial; text-decoration-style: initial; text-decoration-color: initial;&quot;&gt;&lt;font style=&quot;border-color: var(--border-color); font-size: 16px;&quot;&gt;[17:0]&lt;/font&gt;&lt;/b&gt;" style="text;whiteSpace=wrap;html=1;rotation=-90;" parent="1" vertex="1">
          <mxGeometry x="60" y="415" width="50" height="40" as="geometry" />
        </mxCell>
<<<<<<< HEAD
        <mxCell id="by4jPPsHF0q0PhyXpUfG-1" value="" style="rounded=0;whiteSpace=wrap;html=1;" parent="1" vertex="1">
          <mxGeometry x="490" y="320" width="30" height="50" as="geometry" />
        </mxCell>
        <mxCell id="by4jPPsHF0q0PhyXpUfG-2" value="" style="endArrow=classic;html=1;rounded=0;exitX=0.35;exitY=0.5;exitDx=0;exitDy=0;exitPerimeter=0;" parent="1" source="JmAIR4OpFydR7K1g31q8-85" target="JmAIR4OpFydR7K1g31q8-50" edge="1">
=======
        <mxCell id="by4jPPsHF0q0PhyXpUfG-1" value="" style="rounded=0;whiteSpace=wrap;html=1;" vertex="1" parent="1">
          <mxGeometry x="490" y="320" width="30" height="50" as="geometry" />
        </mxCell>
        <mxCell id="by4jPPsHF0q0PhyXpUfG-2" value="" style="endArrow=classic;html=1;rounded=0;exitX=0.35;exitY=0.5;exitDx=0;exitDy=0;exitPerimeter=0;" edge="1" parent="1" source="JmAIR4OpFydR7K1g31q8-85" target="JmAIR4OpFydR7K1g31q8-50">
>>>>>>> 030be3271f37c63af79cdc0ebf7571688434fc72
          <mxGeometry width="50" height="50" relative="1" as="geometry">
            <mxPoint x="559" y="345" as="sourcePoint" />
            <mxPoint x="830" y="345" as="targetPoint" />
          </mxGeometry>
        </mxCell>
        <mxCell id="JmAIR4OpFydR7K1g31q8-50" value="" style="rounded=0;whiteSpace=wrap;html=1;" parent="1" vertex="1">
          <mxGeometry x="827" y="320" width="30" height="50" as="geometry" />
        </mxCell>
<<<<<<< HEAD
        <mxCell id="by4jPPsHF0q0PhyXpUfG-3" value="" style="rounded=0;whiteSpace=wrap;html=1;" parent="1" vertex="1">
          <mxGeometry x="857" y="320" width="30" height="50" as="geometry" />
        </mxCell>
        <mxCell id="by4jPPsHF0q0PhyXpUfG-4" value="" style="rounded=0;whiteSpace=wrap;html=1;" parent="1" vertex="1">
          <mxGeometry x="1220" y="320" width="30" height="50" as="geometry" />
        </mxCell>
        <mxCell id="by4jPPsHF0q0PhyXpUfG-6" value="" style="rounded=0;whiteSpace=wrap;html=1;" parent="1" vertex="1">
=======
        <mxCell id="by4jPPsHF0q0PhyXpUfG-3" value="" style="rounded=0;whiteSpace=wrap;html=1;" vertex="1" parent="1">
          <mxGeometry x="857" y="320" width="30" height="50" as="geometry" />
        </mxCell>
        <mxCell id="by4jPPsHF0q0PhyXpUfG-4" value="" style="rounded=0;whiteSpace=wrap;html=1;" vertex="1" parent="1">
          <mxGeometry x="1220" y="320" width="30" height="50" as="geometry" />
        </mxCell>
        <mxCell id="by4jPPsHF0q0PhyXpUfG-6" value="" style="rounded=0;whiteSpace=wrap;html=1;" vertex="1" parent="1">
>>>>>>> 030be3271f37c63af79cdc0ebf7571688434fc72
          <mxGeometry x="1590" y="320" width="30" height="50" as="geometry" />
        </mxCell>
      </root>
    </mxGraphModel>
  </diagram>
  <diagram id="kTB-bfjQelC2XLDSkmQy" name="FIR">
    <mxGraphModel dx="3790" dy="1777" grid="1" gridSize="10" guides="1" tooltips="1" connect="1" arrows="1" fold="1" page="1" pageScale="1" pageWidth="827" pageHeight="1169" math="0" shadow="0">
      <root>
        <mxCell id="0" />
        <mxCell id="1" parent="0" />
        <mxCell id="oRyvlNxfIgB4f54m2zB1-1" value="&lt;font style=&quot;font-size: 16px;&quot;&gt;BUF0&lt;/font&gt;" style="rounded=0;whiteSpace=wrap;html=1;fontStyle=1" vertex="1" parent="1">
          <mxGeometry x="80" y="200" width="360" height="60" as="geometry" />
        </mxCell>
        <mxCell id="oRyvlNxfIgB4f54m2zB1-2" value="&lt;font style=&quot;font-size: 16px;&quot;&gt;BUF1&lt;/font&gt;" style="rounded=0;whiteSpace=wrap;html=1;fontStyle=1" vertex="1" parent="1">
          <mxGeometry x="80" y="320" width="360" height="60" as="geometry" />
        </mxCell>
        <mxCell id="oRyvlNxfIgB4f54m2zB1-5" value="&lt;font style=&quot;font-size: 16px;&quot;&gt;BUF2&lt;/font&gt;" style="rounded=0;whiteSpace=wrap;html=1;fontStyle=1" vertex="1" parent="1">
          <mxGeometry x="80" y="440" width="360" height="60" as="geometry" />
        </mxCell>
        <mxCell id="oRyvlNxfIgB4f54m2zB1-6" value="&lt;font style=&quot;font-size: 16px;&quot;&gt;BUF3&lt;/font&gt;" style="rounded=0;whiteSpace=wrap;html=1;fontStyle=1" vertex="1" parent="1">
          <mxGeometry x="80" y="560" width="360" height="60" as="geometry" />
        </mxCell>
        <mxCell id="oRyvlNxfIgB4f54m2zB1-12" value="" style="endArrow=classic;html=1;rounded=0;entryX=0;entryY=0.5;entryDx=0;entryDy=0;" edge="1" parent="1" target="oRyvlNxfIgB4f54m2zB1-34">
          <mxGeometry width="50" height="50" relative="1" as="geometry">
            <mxPoint x="40" y="110" as="sourcePoint" />
            <mxPoint x="560" y="110" as="targetPoint" />
          </mxGeometry>
        </mxCell>
        <mxCell id="oRyvlNxfIgB4f54m2zB1-13" value="" style="shape=waypoint;sketch=0;fillStyle=solid;size=6;pointerEvents=1;points=[];fillColor=none;resizable=0;rotatable=0;perimeter=centerPerimeter;snapToPoint=1;" vertex="1" parent="1">
          <mxGeometry x="30" y="100" width="20" height="20" as="geometry" />
        </mxCell>
        <mxCell id="oRyvlNxfIgB4f54m2zB1-15" value="" style="endArrow=none;html=1;rounded=0;" edge="1" parent="1">
          <mxGeometry width="50" height="50" relative="1" as="geometry">
            <mxPoint x="40" y="110" as="sourcePoint" />
            <mxPoint x="-20" y="110" as="targetPoint" />
          </mxGeometry>
        </mxCell>
        <mxCell id="oRyvlNxfIgB4f54m2zB1-16" value="" style="endArrow=classic;html=1;rounded=0;exitX=0.6;exitY=0.6;exitDx=0;exitDy=0;exitPerimeter=0;entryX=0;entryY=0.5;entryDx=0;entryDy=0;" edge="1" parent="1" source="oRyvlNxfIgB4f54m2zB1-13" target="oRyvlNxfIgB4f54m2zB1-1">
          <mxGeometry width="50" height="50" relative="1" as="geometry">
            <mxPoint x="630" y="530" as="sourcePoint" />
            <mxPoint x="680" y="480" as="targetPoint" />
            <Array as="points">
              <mxPoint x="40" y="230" />
            </Array>
          </mxGeometry>
        </mxCell>
        <mxCell id="oRyvlNxfIgB4f54m2zB1-17" value="" style="shape=waypoint;sketch=0;fillStyle=solid;size=6;pointerEvents=1;points=[];fillColor=none;resizable=0;rotatable=0;perimeter=centerPerimeter;snapToPoint=1;" vertex="1" parent="1">
          <mxGeometry x="470" y="220" width="20" height="20" as="geometry" />
        </mxCell>
        <mxCell id="oRyvlNxfIgB4f54m2zB1-20" value="" style="shape=waypoint;sketch=0;fillStyle=solid;size=6;pointerEvents=1;points=[];fillColor=none;resizable=0;rotatable=0;perimeter=centerPerimeter;snapToPoint=1;" vertex="1" parent="1">
          <mxGeometry x="470" y="340" width="20" height="20" as="geometry" />
        </mxCell>
        <mxCell id="oRyvlNxfIgB4f54m2zB1-21" value="" style="shape=waypoint;sketch=0;fillStyle=solid;size=6;pointerEvents=1;points=[];fillColor=none;resizable=0;rotatable=0;perimeter=centerPerimeter;snapToPoint=1;" vertex="1" parent="1">
          <mxGeometry x="470" y="460" width="20" height="20" as="geometry" />
        </mxCell>
        <mxCell id="oRyvlNxfIgB4f54m2zB1-23" value="" style="endArrow=none;html=1;rounded=0;exitX=1;exitY=0.5;exitDx=0;exitDy=0;entryX=0.35;entryY=0.5;entryDx=0;entryDy=0;entryPerimeter=0;" edge="1" parent="1" source="oRyvlNxfIgB4f54m2zB1-1" target="oRyvlNxfIgB4f54m2zB1-17">
          <mxGeometry width="50" height="50" relative="1" as="geometry">
            <mxPoint x="630" y="530" as="sourcePoint" />
            <mxPoint x="680" y="480" as="targetPoint" />
          </mxGeometry>
        </mxCell>
        <mxCell id="oRyvlNxfIgB4f54m2zB1-24" value="" style="endArrow=none;html=1;rounded=0;exitX=1;exitY=0.5;exitDx=0;exitDy=0;entryX=0.8;entryY=0.65;entryDx=0;entryDy=0;entryPerimeter=0;" edge="1" parent="1" source="oRyvlNxfIgB4f54m2zB1-2" target="oRyvlNxfIgB4f54m2zB1-20">
          <mxGeometry width="50" height="50" relative="1" as="geometry">
            <mxPoint x="630" y="530" as="sourcePoint" />
            <mxPoint x="680" y="480" as="targetPoint" />
          </mxGeometry>
        </mxCell>
        <mxCell id="oRyvlNxfIgB4f54m2zB1-25" value="" style="endArrow=none;html=1;rounded=0;exitX=1;exitY=0.5;exitDx=0;exitDy=0;" edge="1" parent="1" source="oRyvlNxfIgB4f54m2zB1-5">
          <mxGeometry width="50" height="50" relative="1" as="geometry">
            <mxPoint x="630" y="530" as="sourcePoint" />
            <mxPoint x="480" y="470" as="targetPoint" />
          </mxGeometry>
        </mxCell>
        <mxCell id="oRyvlNxfIgB4f54m2zB1-26" value="" style="endArrow=classic;html=1;rounded=0;exitX=0.35;exitY=0.7;exitDx=0;exitDy=0;exitPerimeter=0;entryX=0;entryY=0.5;entryDx=0;entryDy=0;" edge="1" parent="1" source="oRyvlNxfIgB4f54m2zB1-17" target="oRyvlNxfIgB4f54m2zB1-2">
          <mxGeometry width="50" height="50" relative="1" as="geometry">
            <mxPoint x="630" y="530" as="sourcePoint" />
            <mxPoint x="680" y="480" as="targetPoint" />
            <Array as="points">
              <mxPoint x="480" y="290" />
              <mxPoint x="40" y="290" />
              <mxPoint x="40" y="350" />
            </Array>
          </mxGeometry>
        </mxCell>
        <mxCell id="oRyvlNxfIgB4f54m2zB1-27" value="" style="endArrow=classic;html=1;rounded=0;exitX=0.5;exitY=0.4;exitDx=0;exitDy=0;exitPerimeter=0;entryX=0;entryY=0.5;entryDx=0;entryDy=0;" edge="1" parent="1" source="oRyvlNxfIgB4f54m2zB1-20" target="oRyvlNxfIgB4f54m2zB1-5">
          <mxGeometry width="50" height="50" relative="1" as="geometry">
            <mxPoint x="630" y="530" as="sourcePoint" />
            <mxPoint x="680" y="480" as="targetPoint" />
            <Array as="points">
              <mxPoint x="480" y="410" />
              <mxPoint x="40" y="410" />
              <mxPoint x="40" y="470" />
            </Array>
          </mxGeometry>
        </mxCell>
        <mxCell id="oRyvlNxfIgB4f54m2zB1-28" value="" style="endArrow=classic;html=1;rounded=0;exitX=0.85;exitY=0.55;exitDx=0;exitDy=0;exitPerimeter=0;entryX=0;entryY=0.5;entryDx=0;entryDy=0;" edge="1" parent="1" source="oRyvlNxfIgB4f54m2zB1-21" target="oRyvlNxfIgB4f54m2zB1-6">
          <mxGeometry width="50" height="50" relative="1" as="geometry">
            <mxPoint x="630" y="530" as="sourcePoint" />
            <mxPoint x="680" y="480" as="targetPoint" />
            <Array as="points">
              <mxPoint x="480" y="530" />
              <mxPoint x="40" y="530" />
              <mxPoint x="40" y="590" />
            </Array>
          </mxGeometry>
        </mxCell>
        <mxCell id="oRyvlNxfIgB4f54m2zB1-29" value="" style="endArrow=classic;html=1;rounded=0;exitX=0.95;exitY=0.45;exitDx=0;exitDy=0;exitPerimeter=0;entryX=0;entryY=0.5;entryDx=0;entryDy=0;" edge="1" parent="1" source="oRyvlNxfIgB4f54m2zB1-17" target="oRyvlNxfIgB4f54m2zB1-35">
          <mxGeometry width="50" height="50" relative="1" as="geometry">
            <mxPoint x="630" y="530" as="sourcePoint" />
            <mxPoint x="560" y="230" as="targetPoint" />
          </mxGeometry>
        </mxCell>
        <mxCell id="oRyvlNxfIgB4f54m2zB1-30" value="" style="endArrow=classic;html=1;rounded=0;exitX=0.8;exitY=0.4;exitDx=0;exitDy=0;exitPerimeter=0;entryX=0;entryY=0.5;entryDx=0;entryDy=0;" edge="1" parent="1" source="oRyvlNxfIgB4f54m2zB1-20" target="oRyvlNxfIgB4f54m2zB1-37">
          <mxGeometry width="50" height="50" relative="1" as="geometry">
            <mxPoint x="630" y="330" as="sourcePoint" />
            <mxPoint x="560" y="350" as="targetPoint" />
          </mxGeometry>
        </mxCell>
        <mxCell id="oRyvlNxfIgB4f54m2zB1-31" value="" style="endArrow=classic;html=1;rounded=0;exitX=0.6;exitY=0.85;exitDx=0;exitDy=0;exitPerimeter=0;entryX=0;entryY=0.5;entryDx=0;entryDy=0;" edge="1" parent="1" source="oRyvlNxfIgB4f54m2zB1-21" target="oRyvlNxfIgB4f54m2zB1-38">
          <mxGeometry width="50" height="50" relative="1" as="geometry">
            <mxPoint x="630" y="330" as="sourcePoint" />
            <mxPoint x="560" y="470" as="targetPoint" />
          </mxGeometry>
        </mxCell>
        <mxCell id="oRyvlNxfIgB4f54m2zB1-32" value="" style="endArrow=classic;html=1;rounded=0;exitX=1;exitY=0.5;exitDx=0;exitDy=0;entryX=0;entryY=0.5;entryDx=0;entryDy=0;" edge="1" parent="1" source="oRyvlNxfIgB4f54m2zB1-6" target="oRyvlNxfIgB4f54m2zB1-39">
          <mxGeometry width="50" height="50" relative="1" as="geometry">
            <mxPoint x="630" y="330" as="sourcePoint" />
            <mxPoint x="560" y="590" as="targetPoint" />
          </mxGeometry>
        </mxCell>
        <mxCell id="oRyvlNxfIgB4f54m2zB1-33" value="&lt;b&gt;&lt;font style=&quot;font-size: 16px;&quot;&gt;i_pixel[7:0]&lt;/font&gt;&lt;/b&gt;" style="text;html=1;align=center;verticalAlign=middle;resizable=0;points=[];autosize=1;strokeColor=none;fillColor=none;" vertex="1" parent="1">
          <mxGeometry x="-130" y="95" width="110" height="30" as="geometry" />
        </mxCell>
        <mxCell id="oRyvlNxfIgB4f54m2zB1-34" value="&lt;b&gt;&lt;font style=&quot;font-size: 16px;&quot;&gt;SYSTOLIC_FIR0&lt;/font&gt;&lt;/b&gt;" style="rounded=0;whiteSpace=wrap;html=1;" vertex="1" parent="1">
          <mxGeometry x="560" y="80" width="240" height="60" as="geometry" />
        </mxCell>
        <mxCell id="oRyvlNxfIgB4f54m2zB1-35" value="&lt;b&gt;&lt;font style=&quot;font-size: 16px;&quot;&gt;SYSTOLIC_FIR1&lt;/font&gt;&lt;/b&gt;" style="rounded=0;whiteSpace=wrap;html=1;" vertex="1" parent="1">
          <mxGeometry x="560" y="200" width="240" height="60" as="geometry" />
        </mxCell>
        <mxCell id="oRyvlNxfIgB4f54m2zB1-37" value="&lt;b&gt;&lt;font style=&quot;font-size: 16px;&quot;&gt;SYSTOLIC_FIR2&lt;/font&gt;&lt;/b&gt;" style="rounded=0;whiteSpace=wrap;html=1;" vertex="1" parent="1">
          <mxGeometry x="560" y="320" width="240" height="60" as="geometry" />
        </mxCell>
        <mxCell id="oRyvlNxfIgB4f54m2zB1-38" value="&lt;b&gt;&lt;font style=&quot;font-size: 16px;&quot;&gt;SYSTOLIC_FIR3&lt;/font&gt;&lt;/b&gt;" style="rounded=0;whiteSpace=wrap;html=1;" vertex="1" parent="1">
          <mxGeometry x="560" y="440" width="240" height="60" as="geometry" />
        </mxCell>
        <mxCell id="oRyvlNxfIgB4f54m2zB1-39" value="&lt;b&gt;&lt;font style=&quot;font-size: 16px;&quot;&gt;SYSTOLIC_FIR4&lt;/font&gt;&lt;/b&gt;" style="rounded=0;whiteSpace=wrap;html=1;" vertex="1" parent="1">
          <mxGeometry x="560" y="560" width="240" height="60" as="geometry" />
        </mxCell>
        <mxCell id="oRyvlNxfIgB4f54m2zB1-40" value="" style="endArrow=classic;html=1;rounded=0;" edge="1" parent="1">
          <mxGeometry width="50" height="50" relative="1" as="geometry">
            <mxPoint x="600" y="60" as="sourcePoint" />
            <mxPoint x="600" y="80" as="targetPoint" />
          </mxGeometry>
        </mxCell>
        <mxCell id="oRyvlNxfIgB4f54m2zB1-42" value="" style="endArrow=classic;html=1;rounded=0;" edge="1" parent="1">
          <mxGeometry width="50" height="50" relative="1" as="geometry">
            <mxPoint x="640" y="60" as="sourcePoint" />
            <mxPoint x="640" y="80" as="targetPoint" />
          </mxGeometry>
        </mxCell>
        <mxCell id="oRyvlNxfIgB4f54m2zB1-43" value="" style="endArrow=classic;html=1;rounded=0;" edge="1" parent="1">
          <mxGeometry width="50" height="50" relative="1" as="geometry">
            <mxPoint x="680" y="60" as="sourcePoint" />
            <mxPoint x="679.8" y="80" as="targetPoint" />
          </mxGeometry>
        </mxCell>
        <mxCell id="oRyvlNxfIgB4f54m2zB1-44" value="" style="endArrow=classic;html=1;rounded=0;" edge="1" parent="1">
          <mxGeometry width="50" height="50" relative="1" as="geometry">
            <mxPoint x="720" y="60" as="sourcePoint" />
            <mxPoint x="720" y="80" as="targetPoint" />
          </mxGeometry>
        </mxCell>
        <mxCell id="oRyvlNxfIgB4f54m2zB1-47" value="" style="endArrow=classic;html=1;rounded=0;" edge="1" parent="1">
          <mxGeometry width="50" height="50" relative="1" as="geometry">
            <mxPoint x="760" y="60" as="sourcePoint" />
            <mxPoint x="760" y="80" as="targetPoint" />
          </mxGeometry>
        </mxCell>
        <mxCell id="oRyvlNxfIgB4f54m2zB1-48" value="&lt;b&gt;&lt;font style=&quot;font-size: 16px;&quot;&gt;C0&lt;/font&gt;&lt;/b&gt;" style="text;html=1;align=center;verticalAlign=middle;resizable=0;points=[];autosize=1;strokeColor=none;fillColor=none;" vertex="1" parent="1">
          <mxGeometry x="580" y="30" width="40" height="30" as="geometry" />
        </mxCell>
        <mxCell id="oRyvlNxfIgB4f54m2zB1-49" value="&lt;b&gt;&lt;font style=&quot;font-size: 16px;&quot;&gt;C1&lt;/font&gt;&lt;/b&gt;" style="text;html=1;align=center;verticalAlign=middle;resizable=0;points=[];autosize=1;strokeColor=none;fillColor=none;" vertex="1" parent="1">
          <mxGeometry x="620" y="30" width="40" height="30" as="geometry" />
        </mxCell>
        <mxCell id="oRyvlNxfIgB4f54m2zB1-50" value="&lt;b&gt;&lt;font style=&quot;font-size: 16px;&quot;&gt;C2&lt;/font&gt;&lt;/b&gt;" style="text;html=1;align=center;verticalAlign=middle;resizable=0;points=[];autosize=1;strokeColor=none;fillColor=none;" vertex="1" parent="1">
          <mxGeometry x="660" y="30" width="40" height="30" as="geometry" />
        </mxCell>
        <mxCell id="oRyvlNxfIgB4f54m2zB1-51" value="&lt;b&gt;&lt;font style=&quot;font-size: 16px;&quot;&gt;C3&lt;/font&gt;&lt;/b&gt;" style="text;html=1;align=center;verticalAlign=middle;resizable=0;points=[];autosize=1;strokeColor=none;fillColor=none;" vertex="1" parent="1">
          <mxGeometry x="700" y="30" width="40" height="30" as="geometry" />
        </mxCell>
        <mxCell id="oRyvlNxfIgB4f54m2zB1-52" value="&lt;b&gt;&lt;font style=&quot;font-size: 16px;&quot;&gt;C4&lt;/font&gt;&lt;/b&gt;" style="text;html=1;align=center;verticalAlign=middle;resizable=0;points=[];autosize=1;strokeColor=none;fillColor=none;" vertex="1" parent="1">
          <mxGeometry x="740" y="30" width="40" height="30" as="geometry" />
        </mxCell>
        <mxCell id="oRyvlNxfIgB4f54m2zB1-53" value="" style="endArrow=classic;html=1;rounded=0;" edge="1" parent="1">
          <mxGeometry width="50" height="50" relative="1" as="geometry">
            <mxPoint x="600" y="180" as="sourcePoint" />
            <mxPoint x="600" y="200" as="targetPoint" />
          </mxGeometry>
        </mxCell>
        <mxCell id="oRyvlNxfIgB4f54m2zB1-54" value="" style="endArrow=classic;html=1;rounded=0;" edge="1" parent="1">
          <mxGeometry width="50" height="50" relative="1" as="geometry">
            <mxPoint x="640" y="180" as="sourcePoint" />
            <mxPoint x="640" y="200" as="targetPoint" />
          </mxGeometry>
        </mxCell>
        <mxCell id="oRyvlNxfIgB4f54m2zB1-55" value="" style="endArrow=classic;html=1;rounded=0;" edge="1" parent="1">
          <mxGeometry width="50" height="50" relative="1" as="geometry">
            <mxPoint x="680" y="180" as="sourcePoint" />
            <mxPoint x="679.8" y="200" as="targetPoint" />
          </mxGeometry>
        </mxCell>
        <mxCell id="oRyvlNxfIgB4f54m2zB1-56" value="" style="endArrow=classic;html=1;rounded=0;" edge="1" parent="1">
          <mxGeometry width="50" height="50" relative="1" as="geometry">
            <mxPoint x="720" y="180" as="sourcePoint" />
            <mxPoint x="720" y="200" as="targetPoint" />
          </mxGeometry>
        </mxCell>
        <mxCell id="oRyvlNxfIgB4f54m2zB1-57" value="" style="endArrow=classic;html=1;rounded=0;" edge="1" parent="1">
          <mxGeometry width="50" height="50" relative="1" as="geometry">
            <mxPoint x="760" y="180" as="sourcePoint" />
            <mxPoint x="760" y="200" as="targetPoint" />
          </mxGeometry>
        </mxCell>
        <mxCell id="oRyvlNxfIgB4f54m2zB1-58" value="&lt;b&gt;&lt;font style=&quot;font-size: 16px;&quot;&gt;C5&lt;/font&gt;&lt;/b&gt;" style="text;html=1;align=center;verticalAlign=middle;resizable=0;points=[];autosize=1;strokeColor=none;fillColor=none;" vertex="1" parent="1">
          <mxGeometry x="580" y="150" width="40" height="30" as="geometry" />
        </mxCell>
        <mxCell id="oRyvlNxfIgB4f54m2zB1-59" value="&lt;b&gt;&lt;font style=&quot;font-size: 16px;&quot;&gt;C6&lt;/font&gt;&lt;/b&gt;" style="text;html=1;align=center;verticalAlign=middle;resizable=0;points=[];autosize=1;strokeColor=none;fillColor=none;" vertex="1" parent="1">
          <mxGeometry x="620" y="150" width="40" height="30" as="geometry" />
        </mxCell>
        <mxCell id="oRyvlNxfIgB4f54m2zB1-60" value="&lt;b&gt;&lt;font style=&quot;font-size: 16px;&quot;&gt;C7&lt;/font&gt;&lt;/b&gt;" style="text;html=1;align=center;verticalAlign=middle;resizable=0;points=[];autosize=1;strokeColor=none;fillColor=none;" vertex="1" parent="1">
          <mxGeometry x="660" y="150" width="40" height="30" as="geometry" />
        </mxCell>
        <mxCell id="oRyvlNxfIgB4f54m2zB1-61" value="&lt;b&gt;&lt;font style=&quot;font-size: 16px;&quot;&gt;C8&lt;/font&gt;&lt;/b&gt;" style="text;html=1;align=center;verticalAlign=middle;resizable=0;points=[];autosize=1;strokeColor=none;fillColor=none;" vertex="1" parent="1">
          <mxGeometry x="700" y="150" width="40" height="30" as="geometry" />
        </mxCell>
        <mxCell id="oRyvlNxfIgB4f54m2zB1-62" value="&lt;b&gt;&lt;font style=&quot;font-size: 16px;&quot;&gt;C9&lt;/font&gt;&lt;/b&gt;" style="text;html=1;align=center;verticalAlign=middle;resizable=0;points=[];autosize=1;strokeColor=none;fillColor=none;" vertex="1" parent="1">
          <mxGeometry x="740" y="150" width="40" height="30" as="geometry" />
        </mxCell>
        <mxCell id="oRyvlNxfIgB4f54m2zB1-63" value="" style="endArrow=classic;html=1;rounded=0;" edge="1" parent="1">
          <mxGeometry width="50" height="50" relative="1" as="geometry">
            <mxPoint x="600" y="300" as="sourcePoint" />
            <mxPoint x="600" y="320" as="targetPoint" />
          </mxGeometry>
        </mxCell>
        <mxCell id="oRyvlNxfIgB4f54m2zB1-64" value="" style="endArrow=classic;html=1;rounded=0;" edge="1" parent="1">
          <mxGeometry width="50" height="50" relative="1" as="geometry">
            <mxPoint x="640" y="300" as="sourcePoint" />
            <mxPoint x="640" y="320" as="targetPoint" />
          </mxGeometry>
        </mxCell>
        <mxCell id="oRyvlNxfIgB4f54m2zB1-65" value="" style="endArrow=classic;html=1;rounded=0;" edge="1" parent="1">
          <mxGeometry width="50" height="50" relative="1" as="geometry">
            <mxPoint x="680" y="300" as="sourcePoint" />
            <mxPoint x="679.8" y="320" as="targetPoint" />
          </mxGeometry>
        </mxCell>
        <mxCell id="oRyvlNxfIgB4f54m2zB1-66" value="" style="endArrow=classic;html=1;rounded=0;" edge="1" parent="1">
          <mxGeometry width="50" height="50" relative="1" as="geometry">
            <mxPoint x="720" y="300" as="sourcePoint" />
            <mxPoint x="720" y="320" as="targetPoint" />
          </mxGeometry>
        </mxCell>
        <mxCell id="oRyvlNxfIgB4f54m2zB1-67" value="" style="endArrow=classic;html=1;rounded=0;" edge="1" parent="1">
          <mxGeometry width="50" height="50" relative="1" as="geometry">
            <mxPoint x="760" y="300" as="sourcePoint" />
            <mxPoint x="760" y="320" as="targetPoint" />
          </mxGeometry>
        </mxCell>
        <mxCell id="oRyvlNxfIgB4f54m2zB1-68" value="&lt;b&gt;&lt;font style=&quot;font-size: 16px;&quot;&gt;C10&lt;/font&gt;&lt;/b&gt;" style="text;html=1;align=center;verticalAlign=middle;resizable=0;points=[];autosize=1;strokeColor=none;fillColor=none;" vertex="1" parent="1">
          <mxGeometry x="575" y="270" width="50" height="30" as="geometry" />
        </mxCell>
        <mxCell id="oRyvlNxfIgB4f54m2zB1-69" value="&lt;b&gt;&lt;font style=&quot;font-size: 16px;&quot;&gt;C11&lt;/font&gt;&lt;/b&gt;" style="text;html=1;align=center;verticalAlign=middle;resizable=0;points=[];autosize=1;strokeColor=none;fillColor=none;" vertex="1" parent="1">
          <mxGeometry x="615" y="270" width="50" height="30" as="geometry" />
        </mxCell>
        <mxCell id="oRyvlNxfIgB4f54m2zB1-70" value="&lt;b&gt;&lt;font style=&quot;font-size: 16px;&quot;&gt;C12&lt;/font&gt;&lt;/b&gt;" style="text;html=1;align=center;verticalAlign=middle;resizable=0;points=[];autosize=1;strokeColor=none;fillColor=none;" vertex="1" parent="1">
          <mxGeometry x="655" y="270" width="50" height="30" as="geometry" />
        </mxCell>
        <mxCell id="oRyvlNxfIgB4f54m2zB1-71" value="&lt;b&gt;&lt;font style=&quot;font-size: 16px;&quot;&gt;C13&lt;/font&gt;&lt;/b&gt;" style="text;html=1;align=center;verticalAlign=middle;resizable=0;points=[];autosize=1;strokeColor=none;fillColor=none;" vertex="1" parent="1">
          <mxGeometry x="695" y="270" width="50" height="30" as="geometry" />
        </mxCell>
        <mxCell id="oRyvlNxfIgB4f54m2zB1-72" value="&lt;b&gt;&lt;font style=&quot;font-size: 16px;&quot;&gt;C14&lt;/font&gt;&lt;/b&gt;" style="text;html=1;align=center;verticalAlign=middle;resizable=0;points=[];autosize=1;strokeColor=none;fillColor=none;" vertex="1" parent="1">
          <mxGeometry x="735" y="270" width="50" height="30" as="geometry" />
        </mxCell>
        <mxCell id="oRyvlNxfIgB4f54m2zB1-73" value="" style="endArrow=classic;html=1;rounded=0;" edge="1" parent="1">
          <mxGeometry width="50" height="50" relative="1" as="geometry">
            <mxPoint x="600" y="420" as="sourcePoint" />
            <mxPoint x="600" y="440" as="targetPoint" />
          </mxGeometry>
        </mxCell>
        <mxCell id="oRyvlNxfIgB4f54m2zB1-74" value="" style="endArrow=classic;html=1;rounded=0;" edge="1" parent="1">
          <mxGeometry width="50" height="50" relative="1" as="geometry">
            <mxPoint x="640" y="420" as="sourcePoint" />
            <mxPoint x="640" y="440" as="targetPoint" />
          </mxGeometry>
        </mxCell>
        <mxCell id="oRyvlNxfIgB4f54m2zB1-75" value="" style="endArrow=classic;html=1;rounded=0;" edge="1" parent="1">
          <mxGeometry width="50" height="50" relative="1" as="geometry">
            <mxPoint x="680" y="420" as="sourcePoint" />
            <mxPoint x="679.8" y="440" as="targetPoint" />
          </mxGeometry>
        </mxCell>
        <mxCell id="oRyvlNxfIgB4f54m2zB1-76" value="" style="endArrow=classic;html=1;rounded=0;" edge="1" parent="1">
          <mxGeometry width="50" height="50" relative="1" as="geometry">
            <mxPoint x="720" y="420" as="sourcePoint" />
            <mxPoint x="720" y="440" as="targetPoint" />
          </mxGeometry>
        </mxCell>
        <mxCell id="oRyvlNxfIgB4f54m2zB1-77" value="" style="endArrow=classic;html=1;rounded=0;" edge="1" parent="1">
          <mxGeometry width="50" height="50" relative="1" as="geometry">
            <mxPoint x="760" y="420" as="sourcePoint" />
            <mxPoint x="760" y="440" as="targetPoint" />
          </mxGeometry>
        </mxCell>
        <mxCell id="oRyvlNxfIgB4f54m2zB1-78" value="&lt;b&gt;&lt;font style=&quot;font-size: 16px;&quot;&gt;C15&lt;/font&gt;&lt;/b&gt;" style="text;html=1;align=center;verticalAlign=middle;resizable=0;points=[];autosize=1;strokeColor=none;fillColor=none;" vertex="1" parent="1">
          <mxGeometry x="575" y="390" width="50" height="30" as="geometry" />
        </mxCell>
        <mxCell id="oRyvlNxfIgB4f54m2zB1-79" value="&lt;b&gt;&lt;font style=&quot;font-size: 16px;&quot;&gt;C16&lt;/font&gt;&lt;/b&gt;" style="text;html=1;align=center;verticalAlign=middle;resizable=0;points=[];autosize=1;strokeColor=none;fillColor=none;" vertex="1" parent="1">
          <mxGeometry x="615" y="390" width="50" height="30" as="geometry" />
        </mxCell>
        <mxCell id="oRyvlNxfIgB4f54m2zB1-80" value="&lt;b&gt;&lt;font style=&quot;font-size: 16px;&quot;&gt;C17&lt;/font&gt;&lt;/b&gt;" style="text;html=1;align=center;verticalAlign=middle;resizable=0;points=[];autosize=1;strokeColor=none;fillColor=none;" vertex="1" parent="1">
          <mxGeometry x="655" y="390" width="50" height="30" as="geometry" />
        </mxCell>
        <mxCell id="oRyvlNxfIgB4f54m2zB1-81" value="&lt;b&gt;&lt;font style=&quot;font-size: 16px;&quot;&gt;C18&lt;/font&gt;&lt;/b&gt;" style="text;html=1;align=center;verticalAlign=middle;resizable=0;points=[];autosize=1;strokeColor=none;fillColor=none;" vertex="1" parent="1">
          <mxGeometry x="695" y="390" width="50" height="30" as="geometry" />
        </mxCell>
        <mxCell id="oRyvlNxfIgB4f54m2zB1-82" value="&lt;b&gt;&lt;font style=&quot;font-size: 16px;&quot;&gt;C19&lt;/font&gt;&lt;/b&gt;" style="text;html=1;align=center;verticalAlign=middle;resizable=0;points=[];autosize=1;strokeColor=none;fillColor=none;" vertex="1" parent="1">
          <mxGeometry x="735" y="390" width="50" height="30" as="geometry" />
        </mxCell>
        <mxCell id="oRyvlNxfIgB4f54m2zB1-83" value="" style="endArrow=classic;html=1;rounded=0;" edge="1" parent="1">
          <mxGeometry width="50" height="50" relative="1" as="geometry">
            <mxPoint x="600" y="540" as="sourcePoint" />
            <mxPoint x="600" y="560" as="targetPoint" />
          </mxGeometry>
        </mxCell>
        <mxCell id="oRyvlNxfIgB4f54m2zB1-84" value="" style="endArrow=classic;html=1;rounded=0;" edge="1" parent="1">
          <mxGeometry width="50" height="50" relative="1" as="geometry">
            <mxPoint x="640" y="540" as="sourcePoint" />
            <mxPoint x="640" y="560" as="targetPoint" />
          </mxGeometry>
        </mxCell>
        <mxCell id="oRyvlNxfIgB4f54m2zB1-85" value="" style="endArrow=classic;html=1;rounded=0;" edge="1" parent="1">
          <mxGeometry width="50" height="50" relative="1" as="geometry">
            <mxPoint x="680" y="540" as="sourcePoint" />
            <mxPoint x="679.8" y="560" as="targetPoint" />
          </mxGeometry>
        </mxCell>
        <mxCell id="oRyvlNxfIgB4f54m2zB1-86" value="" style="endArrow=classic;html=1;rounded=0;" edge="1" parent="1">
          <mxGeometry width="50" height="50" relative="1" as="geometry">
            <mxPoint x="720" y="540" as="sourcePoint" />
            <mxPoint x="720" y="560" as="targetPoint" />
          </mxGeometry>
        </mxCell>
        <mxCell id="oRyvlNxfIgB4f54m2zB1-87" value="" style="endArrow=classic;html=1;rounded=0;" edge="1" parent="1">
          <mxGeometry width="50" height="50" relative="1" as="geometry">
            <mxPoint x="760" y="540" as="sourcePoint" />
            <mxPoint x="760" y="560" as="targetPoint" />
          </mxGeometry>
        </mxCell>
        <mxCell id="oRyvlNxfIgB4f54m2zB1-88" value="&lt;b&gt;&lt;font style=&quot;font-size: 16px;&quot;&gt;C20&lt;/font&gt;&lt;/b&gt;" style="text;html=1;align=center;verticalAlign=middle;resizable=0;points=[];autosize=1;strokeColor=none;fillColor=none;" vertex="1" parent="1">
          <mxGeometry x="575" y="510" width="50" height="30" as="geometry" />
        </mxCell>
        <mxCell id="oRyvlNxfIgB4f54m2zB1-89" value="&lt;b&gt;&lt;font style=&quot;font-size: 16px;&quot;&gt;C21&lt;/font&gt;&lt;/b&gt;" style="text;html=1;align=center;verticalAlign=middle;resizable=0;points=[];autosize=1;strokeColor=none;fillColor=none;" vertex="1" parent="1">
          <mxGeometry x="615" y="510" width="50" height="30" as="geometry" />
        </mxCell>
        <mxCell id="oRyvlNxfIgB4f54m2zB1-90" value="&lt;b&gt;&lt;font style=&quot;font-size: 16px;&quot;&gt;C22&lt;/font&gt;&lt;/b&gt;" style="text;html=1;align=center;verticalAlign=middle;resizable=0;points=[];autosize=1;strokeColor=none;fillColor=none;" vertex="1" parent="1">
          <mxGeometry x="655" y="510" width="50" height="30" as="geometry" />
        </mxCell>
        <mxCell id="oRyvlNxfIgB4f54m2zB1-91" value="&lt;b&gt;&lt;font style=&quot;font-size: 16px;&quot;&gt;C23&lt;/font&gt;&lt;/b&gt;" style="text;html=1;align=center;verticalAlign=middle;resizable=0;points=[];autosize=1;strokeColor=none;fillColor=none;" vertex="1" parent="1">
          <mxGeometry x="695" y="510" width="50" height="30" as="geometry" />
        </mxCell>
        <mxCell id="oRyvlNxfIgB4f54m2zB1-92" value="&lt;b&gt;&lt;font style=&quot;font-size: 16px;&quot;&gt;C24&lt;/font&gt;&lt;/b&gt;" style="text;html=1;align=center;verticalAlign=middle;resizable=0;points=[];autosize=1;strokeColor=none;fillColor=none;" vertex="1" parent="1">
          <mxGeometry x="735" y="510" width="50" height="30" as="geometry" />
        </mxCell>
        <mxCell id="FevOcvQHbbQE0i1Lqjy1-1" value="" style="endArrow=classic;html=1;rounded=0;exitX=1;exitY=0.5;exitDx=0;exitDy=0;entryX=0.25;entryY=1;entryDx=0;entryDy=0;" edge="1" parent="1" source="oRyvlNxfIgB4f54m2zB1-34" target="FevOcvQHbbQE0i1Lqjy1-2">
          <mxGeometry width="50" height="50" relative="1" as="geometry">
            <mxPoint x="490" y="370" as="sourcePoint" />
            <mxPoint x="840" y="110" as="targetPoint" />
            <Array as="points">
              <mxPoint x="830" y="110" />
              <mxPoint x="830" y="145" />
            </Array>
          </mxGeometry>
        </mxCell>
        <mxCell id="FevOcvQHbbQE0i1Lqjy1-2" value="&lt;span&gt;&lt;font style=&quot;font-size: 29px;&quot;&gt;+&lt;/font&gt;&lt;/span&gt;" style="rounded=1;whiteSpace=wrap;html=1;rotation=90;fontStyle=0" vertex="1" parent="1">
          <mxGeometry x="840" y="142.5" width="80" height="45" as="geometry" />
        </mxCell>
        <mxCell id="FevOcvQHbbQE0i1Lqjy1-3" value="" style="endArrow=classic;html=1;rounded=0;exitX=1;exitY=0.5;exitDx=0;exitDy=0;entryX=0.75;entryY=1;entryDx=0;entryDy=0;" edge="1" parent="1" source="oRyvlNxfIgB4f54m2zB1-35" target="FevOcvQHbbQE0i1Lqjy1-2">
          <mxGeometry width="50" height="50" relative="1" as="geometry">
            <mxPoint x="690" y="370" as="sourcePoint" />
            <mxPoint x="740" y="320" as="targetPoint" />
            <Array as="points">
              <mxPoint x="830" y="230" />
              <mxPoint x="830" y="185" />
            </Array>
          </mxGeometry>
        </mxCell>
        <mxCell id="FevOcvQHbbQE0i1Lqjy1-4" value="" style="endArrow=classic;html=1;rounded=0;entryX=0.25;entryY=1;entryDx=0;entryDy=0;" edge="1" parent="1" target="FevOcvQHbbQE0i1Lqjy1-5">
          <mxGeometry width="50" height="50" relative="1" as="geometry">
            <mxPoint x="800" y="350" as="sourcePoint" />
            <mxPoint x="840" y="350" as="targetPoint" />
            <Array as="points">
              <mxPoint x="830" y="350" />
              <mxPoint x="830" y="385" />
            </Array>
          </mxGeometry>
        </mxCell>
        <mxCell id="FevOcvQHbbQE0i1Lqjy1-5" value="&lt;span&gt;&lt;font style=&quot;font-size: 29px;&quot;&gt;+&lt;/font&gt;&lt;/span&gt;" style="rounded=1;whiteSpace=wrap;html=1;rotation=90;fontStyle=0" vertex="1" parent="1">
          <mxGeometry x="840" y="382.5" width="80" height="45" as="geometry" />
        </mxCell>
        <mxCell id="FevOcvQHbbQE0i1Lqjy1-6" value="" style="endArrow=classic;html=1;rounded=0;entryX=0.75;entryY=1;entryDx=0;entryDy=0;" edge="1" parent="1" target="FevOcvQHbbQE0i1Lqjy1-5">
          <mxGeometry width="50" height="50" relative="1" as="geometry">
            <mxPoint x="800" y="470" as="sourcePoint" />
            <mxPoint x="740" y="560" as="targetPoint" />
            <Array as="points">
              <mxPoint x="830" y="470" />
              <mxPoint x="830" y="425" />
            </Array>
          </mxGeometry>
        </mxCell>
        <mxCell id="FevOcvQHbbQE0i1Lqjy1-7" value="" style="rounded=0;whiteSpace=wrap;html=1;" vertex="1" parent="1">
          <mxGeometry x="930" y="385" width="20" height="40" as="geometry" />
        </mxCell>
        <mxCell id="FevOcvQHbbQE0i1Lqjy1-8" value="" style="rounded=0;whiteSpace=wrap;html=1;" vertex="1" parent="1">
          <mxGeometry x="930" y="145" width="20" height="40" as="geometry" />
        </mxCell>
        <mxCell id="FevOcvQHbbQE0i1Lqjy1-9" value="" style="endArrow=classic;html=1;rounded=0;exitX=0.5;exitY=0;exitDx=0;exitDy=0;entryX=0;entryY=0.5;entryDx=0;entryDy=0;" edge="1" parent="1" source="FevOcvQHbbQE0i1Lqjy1-2" target="FevOcvQHbbQE0i1Lqjy1-8">
          <mxGeometry width="50" height="50" relative="1" as="geometry">
            <mxPoint x="790" y="290" as="sourcePoint" />
            <mxPoint x="840" y="240" as="targetPoint" />
          </mxGeometry>
        </mxCell>
        <mxCell id="FevOcvQHbbQE0i1Lqjy1-10" value="" style="endArrow=classic;html=1;rounded=0;exitX=0.5;exitY=0;exitDx=0;exitDy=0;entryX=0;entryY=0.5;entryDx=0;entryDy=0;" edge="1" parent="1" source="FevOcvQHbbQE0i1Lqjy1-5" target="FevOcvQHbbQE0i1Lqjy1-7">
          <mxGeometry width="50" height="50" relative="1" as="geometry">
            <mxPoint x="790" y="290" as="sourcePoint" />
            <mxPoint x="840" y="240" as="targetPoint" />
          </mxGeometry>
        </mxCell>
        <mxCell id="FevOcvQHbbQE0i1Lqjy1-11" value="&lt;span&gt;&lt;font style=&quot;font-size: 29px;&quot;&gt;+&lt;/font&gt;&lt;/span&gt;" style="rounded=1;whiteSpace=wrap;html=1;rotation=90;fontStyle=0" vertex="1" parent="1">
          <mxGeometry x="980" y="262.5" width="80" height="45" as="geometry" />
        </mxCell>
        <mxCell id="FevOcvQHbbQE0i1Lqjy1-12" value="" style="endArrow=classic;html=1;rounded=0;exitX=1;exitY=0.5;exitDx=0;exitDy=0;entryX=0.25;entryY=1;entryDx=0;entryDy=0;" edge="1" parent="1" source="FevOcvQHbbQE0i1Lqjy1-8" target="FevOcvQHbbQE0i1Lqjy1-11">
          <mxGeometry width="50" height="50" relative="1" as="geometry">
            <mxPoint x="790" y="290" as="sourcePoint" />
            <mxPoint x="840" y="240" as="targetPoint" />
            <Array as="points">
              <mxPoint x="970" y="165" />
              <mxPoint x="970" y="265" />
            </Array>
          </mxGeometry>
        </mxCell>
        <mxCell id="FevOcvQHbbQE0i1Lqjy1-13" value="" style="endArrow=classic;html=1;rounded=0;exitX=1;exitY=0.5;exitDx=0;exitDy=0;entryX=0.75;entryY=1;entryDx=0;entryDy=0;" edge="1" parent="1" source="FevOcvQHbbQE0i1Lqjy1-7" target="FevOcvQHbbQE0i1Lqjy1-11">
          <mxGeometry width="50" height="50" relative="1" as="geometry">
            <mxPoint x="790" y="290" as="sourcePoint" />
            <mxPoint x="840" y="240" as="targetPoint" />
            <Array as="points">
              <mxPoint x="970" y="405" />
              <mxPoint x="970" y="305" />
            </Array>
          </mxGeometry>
        </mxCell>
        <mxCell id="FevOcvQHbbQE0i1Lqjy1-14" value="" style="rounded=0;whiteSpace=wrap;html=1;" vertex="1" parent="1">
          <mxGeometry x="1070" y="265" width="20" height="40" as="geometry" />
        </mxCell>
        <mxCell id="FevOcvQHbbQE0i1Lqjy1-15" value="" style="endArrow=classic;html=1;rounded=0;exitX=0.5;exitY=0;exitDx=0;exitDy=0;entryX=0;entryY=0.5;entryDx=0;entryDy=0;" edge="1" parent="1" source="FevOcvQHbbQE0i1Lqjy1-11" target="FevOcvQHbbQE0i1Lqjy1-14">
          <mxGeometry width="50" height="50" relative="1" as="geometry">
            <mxPoint x="790" y="290" as="sourcePoint" />
            <mxPoint x="840" y="240" as="targetPoint" />
          </mxGeometry>
        </mxCell>
        <mxCell id="FevOcvQHbbQE0i1Lqjy1-16" value="&lt;span&gt;&lt;font style=&quot;font-size: 29px;&quot;&gt;+&lt;/font&gt;&lt;/span&gt;" style="rounded=1;whiteSpace=wrap;html=1;rotation=90;fontStyle=0" vertex="1" parent="1">
          <mxGeometry x="1120" y="420" width="80" height="45" as="geometry" />
        </mxCell>
        <mxCell id="FevOcvQHbbQE0i1Lqjy1-17" value="" style="endArrow=classic;html=1;rounded=0;exitX=1;exitY=0.5;exitDx=0;exitDy=0;entryX=0;entryY=0.5;entryDx=0;entryDy=0;" edge="1" parent="1" source="oRyvlNxfIgB4f54m2zB1-39" target="FevOcvQHbbQE0i1Lqjy1-18">
          <mxGeometry width="50" height="50" relative="1" as="geometry">
            <mxPoint x="880" y="360" as="sourcePoint" />
            <mxPoint x="920" y="590" as="targetPoint" />
          </mxGeometry>
        </mxCell>
        <mxCell id="FevOcvQHbbQE0i1Lqjy1-18" value="" style="rounded=0;whiteSpace=wrap;html=1;" vertex="1" parent="1">
          <mxGeometry x="930" y="570" width="20" height="40" as="geometry" />
        </mxCell>
        <mxCell id="FevOcvQHbbQE0i1Lqjy1-19" value="" style="rounded=0;whiteSpace=wrap;html=1;" vertex="1" parent="1">
          <mxGeometry x="1070" y="570" width="20" height="40" as="geometry" />
        </mxCell>
        <mxCell id="FevOcvQHbbQE0i1Lqjy1-20" value="" style="endArrow=classic;html=1;rounded=0;exitX=1;exitY=0.5;exitDx=0;exitDy=0;entryX=0;entryY=0.5;entryDx=0;entryDy=0;" edge="1" parent="1" source="FevOcvQHbbQE0i1Lqjy1-18" target="FevOcvQHbbQE0i1Lqjy1-19">
          <mxGeometry width="50" height="50" relative="1" as="geometry">
            <mxPoint x="830" y="460" as="sourcePoint" />
            <mxPoint x="880" y="410" as="targetPoint" />
          </mxGeometry>
        </mxCell>
        <mxCell id="FevOcvQHbbQE0i1Lqjy1-21" value="" style="endArrow=classic;html=1;rounded=0;exitX=1;exitY=0.5;exitDx=0;exitDy=0;entryX=0.75;entryY=1;entryDx=0;entryDy=0;" edge="1" parent="1" source="FevOcvQHbbQE0i1Lqjy1-19" target="FevOcvQHbbQE0i1Lqjy1-16">
          <mxGeometry width="50" height="50" relative="1" as="geometry">
            <mxPoint x="830" y="460" as="sourcePoint" />
            <mxPoint x="880" y="410" as="targetPoint" />
            <Array as="points">
              <mxPoint x="1110" y="590" />
              <mxPoint x="1110" y="463" />
            </Array>
          </mxGeometry>
        </mxCell>
        <mxCell id="FevOcvQHbbQE0i1Lqjy1-24" value="" style="endArrow=classic;html=1;rounded=0;exitX=1;exitY=0.5;exitDx=0;exitDy=0;entryX=0.25;entryY=1;entryDx=0;entryDy=0;" edge="1" parent="1" source="FevOcvQHbbQE0i1Lqjy1-14" target="FevOcvQHbbQE0i1Lqjy1-16">
          <mxGeometry width="50" height="50" relative="1" as="geometry">
            <mxPoint x="830" y="460" as="sourcePoint" />
            <mxPoint x="880" y="410" as="targetPoint" />
            <Array as="points">
              <mxPoint x="1110" y="285" />
              <mxPoint x="1110" y="423" />
            </Array>
          </mxGeometry>
        </mxCell>
        <mxCell id="FevOcvQHbbQE0i1Lqjy1-25" value="" style="rounded=0;whiteSpace=wrap;html=1;" vertex="1" parent="1">
          <mxGeometry x="1210" y="422.5" width="20" height="40" as="geometry" />
        </mxCell>
        <mxCell id="FevOcvQHbbQE0i1Lqjy1-26" value="" style="endArrow=classic;html=1;rounded=0;exitX=0.5;exitY=0;exitDx=0;exitDy=0;entryX=0;entryY=0.5;entryDx=0;entryDy=0;" edge="1" parent="1" source="FevOcvQHbbQE0i1Lqjy1-16" target="FevOcvQHbbQE0i1Lqjy1-25">
          <mxGeometry width="50" height="50" relative="1" as="geometry">
            <mxPoint x="650" y="360" as="sourcePoint" />
            <mxPoint x="700" y="310" as="targetPoint" />
          </mxGeometry>
        </mxCell>
        <mxCell id="FevOcvQHbbQE0i1Lqjy1-27" value="" style="endArrow=classic;html=1;rounded=0;exitX=1;exitY=0.5;exitDx=0;exitDy=0;" edge="1" parent="1" source="FevOcvQHbbQE0i1Lqjy1-25">
          <mxGeometry width="50" height="50" relative="1" as="geometry">
            <mxPoint x="650" y="360" as="sourcePoint" />
            <mxPoint x="1320" y="443" as="targetPoint" />
          </mxGeometry>
        </mxCell>
        <mxCell id="FevOcvQHbbQE0i1Lqjy1-29" value="&lt;font style=&quot;font-size: 16px;&quot;&gt;&lt;b&gt;o_pixel[7:0]&lt;/b&gt;&lt;/font&gt;" style="text;html=1;align=center;verticalAlign=middle;resizable=0;points=[];autosize=1;strokeColor=none;fillColor=none;" vertex="1" parent="1">
          <mxGeometry x="1255" y="408" width="110" height="30" as="geometry" />
        </mxCell>
        <mxCell id="FevOcvQHbbQE0i1Lqjy1-30" value="&lt;b&gt;&lt;font style=&quot;font-size: 16px;&quot;&gt;hsync_del[2:0]&lt;/font&gt;&lt;/b&gt;" style="rounded=0;whiteSpace=wrap;html=1;" vertex="1" parent="1">
          <mxGeometry x="200" y="720" width="160" height="40" as="geometry" />
        </mxCell>
        <mxCell id="FevOcvQHbbQE0i1Lqjy1-31" value="&lt;font style=&quot;font-size: 16px;&quot;&gt;&lt;b&gt;hsync_firdel[8:0]&lt;/b&gt;&lt;/font&gt;" style="rounded=0;whiteSpace=wrap;html=1;" vertex="1" parent="1">
          <mxGeometry x="670" y="720" width="360" height="40" as="geometry" />
        </mxCell>
        <mxCell id="FevOcvQHbbQE0i1Lqjy1-32" value="" style="endArrow=classic;html=1;rounded=0;entryX=0;entryY=0.5;entryDx=0;entryDy=0;" edge="1" parent="1" target="FevOcvQHbbQE0i1Lqjy1-30">
          <mxGeometry width="50" height="50" relative="1" as="geometry">
            <mxPoint x="-10" y="740" as="sourcePoint" />
            <mxPoint x="670" y="340" as="targetPoint" />
          </mxGeometry>
        </mxCell>
        <mxCell id="FevOcvQHbbQE0i1Lqjy1-33" value="" style="endArrow=classic;html=1;rounded=0;exitX=1;exitY=0.5;exitDx=0;exitDy=0;entryX=0;entryY=0.5;entryDx=0;entryDy=0;" edge="1" parent="1" source="FevOcvQHbbQE0i1Lqjy1-30" target="FevOcvQHbbQE0i1Lqjy1-31">
          <mxGeometry width="50" height="50" relative="1" as="geometry">
            <mxPoint x="620" y="390" as="sourcePoint" />
            <mxPoint x="670" y="340" as="targetPoint" />
          </mxGeometry>
        </mxCell>
        <mxCell id="FevOcvQHbbQE0i1Lqjy1-34" value="" style="endArrow=classic;html=1;rounded=0;exitX=1;exitY=0.5;exitDx=0;exitDy=0;" edge="1" parent="1" source="FevOcvQHbbQE0i1Lqjy1-31">
          <mxGeometry width="50" height="50" relative="1" as="geometry">
            <mxPoint x="620" y="390" as="sourcePoint" />
            <mxPoint x="1320" y="740" as="targetPoint" />
          </mxGeometry>
        </mxCell>
        <mxCell id="FevOcvQHbbQE0i1Lqjy1-35" value="&lt;b&gt;&lt;font style=&quot;font-size: 16px;&quot;&gt;vsync_del[2:0]&lt;/font&gt;&lt;/b&gt;" style="rounded=0;whiteSpace=wrap;html=1;" vertex="1" parent="1">
          <mxGeometry x="200" y="800" width="160" height="40" as="geometry" />
        </mxCell>
        <mxCell id="FevOcvQHbbQE0i1Lqjy1-36" value="&lt;font style=&quot;font-size: 16px;&quot;&gt;&lt;b&gt;vsync_firdel[8:0]&lt;/b&gt;&lt;/font&gt;" style="rounded=0;whiteSpace=wrap;html=1;" vertex="1" parent="1">
          <mxGeometry x="670" y="800" width="360" height="40" as="geometry" />
        </mxCell>
        <mxCell id="FevOcvQHbbQE0i1Lqjy1-37" value="" style="endArrow=classic;html=1;rounded=0;entryX=0;entryY=0.5;entryDx=0;entryDy=0;" edge="1" parent="1" target="FevOcvQHbbQE0i1Lqjy1-35">
          <mxGeometry width="50" height="50" relative="1" as="geometry">
            <mxPoint x="-10" y="820" as="sourcePoint" />
            <mxPoint x="670" y="420" as="targetPoint" />
          </mxGeometry>
        </mxCell>
        <mxCell id="FevOcvQHbbQE0i1Lqjy1-38" value="" style="endArrow=classic;html=1;rounded=0;exitX=1;exitY=0.5;exitDx=0;exitDy=0;entryX=0;entryY=0.5;entryDx=0;entryDy=0;" edge="1" parent="1" source="FevOcvQHbbQE0i1Lqjy1-35" target="FevOcvQHbbQE0i1Lqjy1-36">
          <mxGeometry width="50" height="50" relative="1" as="geometry">
            <mxPoint x="620" y="470" as="sourcePoint" />
            <mxPoint x="670" y="420" as="targetPoint" />
          </mxGeometry>
        </mxCell>
        <mxCell id="FevOcvQHbbQE0i1Lqjy1-39" value="" style="endArrow=classic;html=1;rounded=0;exitX=1;exitY=0.5;exitDx=0;exitDy=0;" edge="1" parent="1" source="FevOcvQHbbQE0i1Lqjy1-36">
          <mxGeometry width="50" height="50" relative="1" as="geometry">
            <mxPoint x="620" y="470" as="sourcePoint" />
            <mxPoint x="1320" y="820" as="targetPoint" />
          </mxGeometry>
        </mxCell>
        <mxCell id="FevOcvQHbbQE0i1Lqjy1-40" value="&lt;b&gt;&lt;font style=&quot;font-size: 16px;&quot;&gt;valid_del[2:0]&lt;/font&gt;&lt;/b&gt;" style="rounded=0;whiteSpace=wrap;html=1;" vertex="1" parent="1">
          <mxGeometry x="200" y="880" width="160" height="40" as="geometry" />
        </mxCell>
        <mxCell id="FevOcvQHbbQE0i1Lqjy1-41" value="&lt;font style=&quot;font-size: 16px;&quot;&gt;&lt;b&gt;valid_firdel[9:0]&lt;/b&gt;&lt;/font&gt;" style="rounded=0;whiteSpace=wrap;html=1;" vertex="1" parent="1">
          <mxGeometry x="670" y="880" width="360" height="40" as="geometry" />
        </mxCell>
        <mxCell id="FevOcvQHbbQE0i1Lqjy1-42" value="" style="endArrow=classic;html=1;rounded=0;entryX=0;entryY=0.5;entryDx=0;entryDy=0;" edge="1" parent="1" target="FevOcvQHbbQE0i1Lqjy1-40">
          <mxGeometry width="50" height="50" relative="1" as="geometry">
            <mxPoint x="-10" y="900" as="sourcePoint" />
            <mxPoint x="670" y="500" as="targetPoint" />
          </mxGeometry>
        </mxCell>
        <mxCell id="FevOcvQHbbQE0i1Lqjy1-43" value="" style="endArrow=classic;html=1;rounded=0;exitX=1;exitY=0.5;exitDx=0;exitDy=0;entryX=0;entryY=0.5;entryDx=0;entryDy=0;" edge="1" parent="1" source="FevOcvQHbbQE0i1Lqjy1-40" target="FevOcvQHbbQE0i1Lqjy1-41">
          <mxGeometry width="50" height="50" relative="1" as="geometry">
            <mxPoint x="620" y="550" as="sourcePoint" />
            <mxPoint x="670" y="500" as="targetPoint" />
          </mxGeometry>
        </mxCell>
        <mxCell id="FevOcvQHbbQE0i1Lqjy1-44" value="" style="endArrow=classic;html=1;rounded=0;exitX=1;exitY=0.5;exitDx=0;exitDy=0;" edge="1" parent="1" source="FevOcvQHbbQE0i1Lqjy1-41">
          <mxGeometry width="50" height="50" relative="1" as="geometry">
            <mxPoint x="620" y="550" as="sourcePoint" />
            <mxPoint x="1320" y="900" as="targetPoint" />
          </mxGeometry>
        </mxCell>
        <mxCell id="FevOcvQHbbQE0i1Lqjy1-45" value="&lt;font style=&quot;font-size: 16px;&quot;&gt;&lt;b&gt;i_hsync&lt;/b&gt;&lt;/font&gt;" style="text;html=1;align=center;verticalAlign=middle;resizable=0;points=[];autosize=1;strokeColor=none;fillColor=none;" vertex="1" parent="1">
          <mxGeometry x="-90" y="725" width="80" height="30" as="geometry" />
        </mxCell>
        <mxCell id="FevOcvQHbbQE0i1Lqjy1-46" value="&lt;font style=&quot;font-size: 16px;&quot;&gt;&lt;b&gt;i_vsync&lt;/b&gt;&lt;/font&gt;" style="text;html=1;align=center;verticalAlign=middle;resizable=0;points=[];autosize=1;strokeColor=none;fillColor=none;" vertex="1" parent="1">
          <mxGeometry x="-90" y="805" width="80" height="30" as="geometry" />
        </mxCell>
        <mxCell id="FevOcvQHbbQE0i1Lqjy1-47" value="&lt;font style=&quot;font-size: 16px;&quot;&gt;&lt;b&gt;i_valid&lt;/b&gt;&lt;/font&gt;" style="text;html=1;align=center;verticalAlign=middle;resizable=0;points=[];autosize=1;strokeColor=none;fillColor=none;" vertex="1" parent="1">
          <mxGeometry x="-85" y="885" width="70" height="30" as="geometry" />
        </mxCell>
        <mxCell id="FevOcvQHbbQE0i1Lqjy1-48" value="&lt;font style=&quot;font-size: 16px;&quot;&gt;&lt;b&gt;o_hsync&lt;/b&gt;&lt;/font&gt;" style="text;html=1;align=center;verticalAlign=middle;resizable=0;points=[];autosize=1;strokeColor=none;fillColor=none;" vertex="1" parent="1">
          <mxGeometry x="1255" y="695" width="90" height="30" as="geometry" />
        </mxCell>
        <mxCell id="FevOcvQHbbQE0i1Lqjy1-49" value="&lt;font style=&quot;font-size: 16px;&quot;&gt;&lt;b&gt;o_vsync&lt;/b&gt;&lt;/font&gt;" style="text;html=1;align=center;verticalAlign=middle;resizable=0;points=[];autosize=1;strokeColor=none;fillColor=none;" vertex="1" parent="1">
          <mxGeometry x="1255" y="775" width="90" height="30" as="geometry" />
        </mxCell>
        <mxCell id="FevOcvQHbbQE0i1Lqjy1-50" value="&lt;font style=&quot;font-size: 16px;&quot;&gt;&lt;b&gt;o_valid&lt;/b&gt;&lt;/font&gt;" style="text;html=1;align=center;verticalAlign=middle;resizable=0;points=[];autosize=1;strokeColor=none;fillColor=none;" vertex="1" parent="1">
          <mxGeometry x="1260" y="855" width="80" height="30" as="geometry" />
        </mxCell>
      </root>
    </mxGraphModel>
  </diagram>
  <diagram id="oEYwhzvyo-TZlDJ-Byn5" name="HDMI Top">
    <mxGraphModel dx="74" dy="-132" grid="1" gridSize="10" guides="1" tooltips="1" connect="1" arrows="1" fold="1" page="1" pageScale="1" pageWidth="827" pageHeight="1169" math="0" shadow="0">
      <root>
        <mxCell id="0" />
        <mxCell id="1" parent="0" />
        <mxCell id="QRvQHKoJffvHAohbSL0J-1" value="&lt;b&gt;&lt;font style=&quot;font-size: 16px;&quot;&gt;HDMI_RX&lt;/font&gt;&lt;/b&gt;" style="rounded=0;whiteSpace=wrap;html=1;" vertex="1" parent="1">
          <mxGeometry x="1790" y="1400" width="120" height="280" as="geometry" />
        </mxCell>
        <mxCell id="QRvQHKoJffvHAohbSL0J-5" value="&lt;b&gt;&lt;font style=&quot;font-size: 16px;&quot;&gt;RGB2Y&lt;/font&gt;&lt;/b&gt;" style="rounded=0;whiteSpace=wrap;html=1;" vertex="1" parent="1">
          <mxGeometry x="1990" y="1400" width="120" height="280" as="geometry" />
        </mxCell>
        <mxCell id="QRvQHKoJffvHAohbSL0J-6" value="" style="endArrow=classic;html=1;rounded=0;entryX=0;entryY=0.214;entryDx=0;entryDy=0;entryPerimeter=0;" edge="1" parent="1" target="QRvQHKoJffvHAohbSL0J-5">
          <mxGeometry width="50" height="50" relative="1" as="geometry">
            <mxPoint x="1910" y="1460" as="sourcePoint" />
            <mxPoint x="1880" y="1430" as="targetPoint" />
          </mxGeometry>
        </mxCell>
        <mxCell id="QRvQHKoJffvHAohbSL0J-7" value="" style="endArrow=classic;html=1;rounded=0;exitX=0.997;exitY=0.357;exitDx=0;exitDy=0;exitPerimeter=0;" edge="1" parent="1" source="QRvQHKoJffvHAohbSL0J-1">
          <mxGeometry width="50" height="50" relative="1" as="geometry">
            <mxPoint x="1830" y="1480" as="sourcePoint" />
            <mxPoint x="1990" y="1500" as="targetPoint" />
          </mxGeometry>
        </mxCell>
        <mxCell id="QRvQHKoJffvHAohbSL0J-8" value="" style="endArrow=classic;html=1;rounded=0;exitX=1;exitY=0.5;exitDx=0;exitDy=0;" edge="1" parent="1" source="QRvQHKoJffvHAohbSL0J-1">
          <mxGeometry width="50" height="50" relative="1" as="geometry">
            <mxPoint x="1910" y="1530" as="sourcePoint" />
            <mxPoint x="1990" y="1540" as="targetPoint" />
          </mxGeometry>
        </mxCell>
        <mxCell id="QRvQHKoJffvHAohbSL0J-10" value="" style="endArrow=classic;html=1;rounded=0;exitX=1.001;exitY=0.643;exitDx=0;exitDy=0;exitPerimeter=0;" edge="1" parent="1" source="QRvQHKoJffvHAohbSL0J-1">
          <mxGeometry width="50" height="50" relative="1" as="geometry">
            <mxPoint x="1920" y="1550" as="sourcePoint" />
            <mxPoint x="1990" y="1580" as="targetPoint" />
          </mxGeometry>
        </mxCell>
        <mxCell id="QRvQHKoJffvHAohbSL0J-11" value="valid" style="text;html=1;align=center;verticalAlign=middle;resizable=0;points=[];autosize=1;strokeColor=none;fillColor=none;" vertex="1" parent="1">
          <mxGeometry x="1920" y="1550" width="50" height="30" as="geometry" />
        </mxCell>
        <mxCell id="QRvQHKoJffvHAohbSL0J-12" value="hsync" style="text;html=1;align=center;verticalAlign=middle;resizable=0;points=[];autosize=1;strokeColor=none;fillColor=none;" vertex="1" parent="1">
          <mxGeometry x="1920" y="1590" width="50" height="30" as="geometry" />
        </mxCell>
        <mxCell id="QRvQHKoJffvHAohbSL0J-13" value="vsync" style="text;html=1;align=center;verticalAlign=middle;resizable=0;points=[];autosize=1;strokeColor=none;fillColor=none;" vertex="1" parent="1">
          <mxGeometry x="1920" y="1630" width="50" height="30" as="geometry" />
        </mxCell>
        <mxCell id="QRvQHKoJffvHAohbSL0J-14" value="red" style="text;html=1;align=center;verticalAlign=middle;resizable=0;points=[];autosize=1;strokeColor=none;fillColor=none;" vertex="1" parent="1">
          <mxGeometry x="1925" y="1430" width="40" height="30" as="geometry" />
        </mxCell>
        <mxCell id="QRvQHKoJffvHAohbSL0J-15" value="" style="endArrow=classic;html=1;rounded=0;exitX=1.001;exitY=0.785;exitDx=0;exitDy=0;exitPerimeter=0;" edge="1" parent="1" source="QRvQHKoJffvHAohbSL0J-1">
          <mxGeometry width="50" height="50" relative="1" as="geometry">
            <mxPoint x="1920" y="1590" as="sourcePoint" />
            <mxPoint x="1990" y="1620" as="targetPoint" />
          </mxGeometry>
        </mxCell>
        <mxCell id="QRvQHKoJffvHAohbSL0J-16" value="green" style="text;html=1;align=center;verticalAlign=middle;resizable=0;points=[];autosize=1;strokeColor=none;fillColor=none;" vertex="1" parent="1">
          <mxGeometry x="1920" y="1470" width="50" height="30" as="geometry" />
        </mxCell>
        <mxCell id="QRvQHKoJffvHAohbSL0J-17" value="" style="endArrow=classic;html=1;rounded=0;" edge="1" parent="1">
          <mxGeometry width="50" height="50" relative="1" as="geometry">
            <mxPoint x="1910" y="1660" as="sourcePoint" />
            <mxPoint x="1990" y="1660" as="targetPoint" />
          </mxGeometry>
        </mxCell>
        <mxCell id="QRvQHKoJffvHAohbSL0J-18" value="blue" style="text;html=1;align=center;verticalAlign=middle;resizable=0;points=[];autosize=1;strokeColor=none;fillColor=none;" vertex="1" parent="1">
          <mxGeometry x="1920" y="1510" width="50" height="30" as="geometry" />
        </mxCell>
        <mxCell id="QRvQHKoJffvHAohbSL0J-20" value="" style="endArrow=classic;html=1;rounded=0;entryX=-0.003;entryY=0.072;entryDx=0;entryDy=0;entryPerimeter=0;" edge="1" parent="1" source="QRvQHKoJffvHAohbSL0J-34" target="QRvQHKoJffvHAohbSL0J-5">
          <mxGeometry width="50" height="50" relative="1" as="geometry">
            <mxPoint x="1950" y="1420" as="sourcePoint" />
            <mxPoint x="1950" y="1490" as="targetPoint" />
          </mxGeometry>
        </mxCell>
        <mxCell id="QRvQHKoJffvHAohbSL0J-21" value="hdmi_clk" style="text;html=1;align=center;verticalAlign=middle;resizable=0;points=[];autosize=1;strokeColor=none;fillColor=none;" vertex="1" parent="1">
          <mxGeometry x="2010" y="1350" width="70" height="30" as="geometry" />
        </mxCell>
        <mxCell id="QRvQHKoJffvHAohbSL0J-22" value="&lt;b&gt;&lt;font style=&quot;font-size: 16px;&quot;&gt;FIR&lt;/font&gt;&lt;/b&gt;" style="rounded=0;whiteSpace=wrap;html=1;" vertex="1" parent="1">
          <mxGeometry x="2190" y="1450" width="110" height="200" as="geometry" />
        </mxCell>
        <mxCell id="QRvQHKoJffvHAohbSL0J-23" value="" style="endArrow=classic;html=1;rounded=0;entryX=-0.007;entryY=0.099;entryDx=0;entryDy=0;entryPerimeter=0;exitX=0.371;exitY=0.683;exitDx=0;exitDy=0;exitPerimeter=0;" edge="1" parent="1" source="QRvQHKoJffvHAohbSL0J-39" target="QRvQHKoJffvHAohbSL0J-22">
          <mxGeometry width="50" height="50" relative="1" as="geometry">
            <mxPoint x="2150" y="1470" as="sourcePoint" />
            <mxPoint x="2190" y="1449" as="targetPoint" />
            <Array as="points">
              <mxPoint x="2150" y="1470" />
            </Array>
          </mxGeometry>
        </mxCell>
        <mxCell id="QRvQHKoJffvHAohbSL0J-25" value="" style="endArrow=classic;html=1;rounded=0;exitX=1.001;exitY=0.393;exitDx=0;exitDy=0;exitPerimeter=0;entryX=0.001;entryY=0.299;entryDx=0;entryDy=0;entryPerimeter=0;" edge="1" parent="1" source="QRvQHKoJffvHAohbSL0J-5" target="QRvQHKoJffvHAohbSL0J-22">
          <mxGeometry width="50" height="50" relative="1" as="geometry">
            <mxPoint x="2090" y="1520" as="sourcePoint" />
            <mxPoint x="2190" y="1490" as="targetPoint" />
          </mxGeometry>
        </mxCell>
        <mxCell id="QRvQHKoJffvHAohbSL0J-26" value="valid" style="text;html=1;align=center;verticalAlign=middle;resizable=0;points=[];autosize=1;strokeColor=none;fillColor=none;" vertex="1" parent="1">
          <mxGeometry x="2120" y="1520" width="50" height="30" as="geometry" />
        </mxCell>
        <mxCell id="QRvQHKoJffvHAohbSL0J-27" value="" style="endArrow=classic;html=1;rounded=0;entryX=0;entryY=0.5;entryDx=0;entryDy=0;exitX=1.001;exitY=0.537;exitDx=0;exitDy=0;exitPerimeter=0;" edge="1" parent="1" source="QRvQHKoJffvHAohbSL0J-5" target="QRvQHKoJffvHAohbSL0J-22">
          <mxGeometry width="50" height="50" relative="1" as="geometry">
            <mxPoint x="2110" y="1530" as="sourcePoint" />
            <mxPoint x="2190" y="1480" as="targetPoint" />
          </mxGeometry>
        </mxCell>
        <mxCell id="QRvQHKoJffvHAohbSL0J-28" value="hsync" style="text;html=1;align=center;verticalAlign=middle;resizable=0;points=[];autosize=1;strokeColor=none;fillColor=none;" vertex="1" parent="1">
          <mxGeometry x="2120" y="1560" width="50" height="30" as="geometry" />
        </mxCell>
        <mxCell id="QRvQHKoJffvHAohbSL0J-29" value="" style="endArrow=classic;html=1;rounded=0;exitX=1.001;exitY=0.678;exitDx=0;exitDy=0;exitPerimeter=0;entryX=0;entryY=0.7;entryDx=0;entryDy=0;entryPerimeter=0;" edge="1" parent="1" source="QRvQHKoJffvHAohbSL0J-5" target="QRvQHKoJffvHAohbSL0J-22">
          <mxGeometry width="50" height="50" relative="1" as="geometry">
            <mxPoint x="2100" y="1550" as="sourcePoint" />
            <mxPoint x="2190" y="1580" as="targetPoint" />
          </mxGeometry>
        </mxCell>
        <mxCell id="QRvQHKoJffvHAohbSL0J-30" value="vsync" style="text;html=1;align=center;verticalAlign=middle;resizable=0;points=[];autosize=1;strokeColor=none;fillColor=none;" vertex="1" parent="1">
          <mxGeometry x="2120" y="1600" width="50" height="30" as="geometry" />
        </mxCell>
        <mxCell id="QRvQHKoJffvHAohbSL0J-31" value="" style="endArrow=classic;html=1;rounded=0;exitX=0.999;exitY=0.821;exitDx=0;exitDy=0;entryX=-0.003;entryY=0.9;entryDx=0;entryDy=0;entryPerimeter=0;exitPerimeter=0;" edge="1" parent="1" source="QRvQHKoJffvHAohbSL0J-5" target="QRvQHKoJffvHAohbSL0J-22">
          <mxGeometry width="50" height="50" relative="1" as="geometry">
            <mxPoint x="2110" y="1580" as="sourcePoint" />
            <mxPoint x="2160" y="1530" as="targetPoint" />
          </mxGeometry>
        </mxCell>
        <mxCell id="QRvQHKoJffvHAohbSL0J-32" value="y" style="text;html=1;align=center;verticalAlign=middle;resizable=0;points=[];autosize=1;strokeColor=none;fillColor=none;" vertex="1" parent="1">
          <mxGeometry x="2130" y="1480" width="30" height="30" as="geometry" />
        </mxCell>
        <mxCell id="QRvQHKoJffvHAohbSL0J-35" value="" style="endArrow=classic;html=1;rounded=0;entryDx=0;entryDy=0;entryPerimeter=0;" edge="1" parent="1" target="QRvQHKoJffvHAohbSL0J-34">
          <mxGeometry width="50" height="50" relative="1" as="geometry">
            <mxPoint x="1950" y="1420" as="sourcePoint" />
            <mxPoint x="1990" y="1420" as="targetPoint" />
          </mxGeometry>
        </mxCell>
        <mxCell id="QRvQHKoJffvHAohbSL0J-34" value="" style="shape=waypoint;sketch=0;fillStyle=solid;size=6;pointerEvents=1;points=[];fillColor=none;resizable=0;rotatable=0;perimeter=centerPerimeter;snapToPoint=1;" vertex="1" parent="1">
          <mxGeometry x="1940" y="1410" width="20" height="20" as="geometry" />
        </mxCell>
        <mxCell id="QRvQHKoJffvHAohbSL0J-36" value="" style="endArrow=none;html=1;rounded=0;exitX=1.003;exitY=0.072;exitDx=0;exitDy=0;exitPerimeter=0;entryX=0.436;entryY=0.416;entryDx=0;entryDy=0;entryPerimeter=0;" edge="1" parent="1" source="QRvQHKoJffvHAohbSL0J-1" target="QRvQHKoJffvHAohbSL0J-34">
          <mxGeometry width="50" height="50" relative="1" as="geometry">
            <mxPoint x="2000" y="1430" as="sourcePoint" />
            <mxPoint x="2050" y="1380" as="targetPoint" />
          </mxGeometry>
        </mxCell>
        <mxCell id="QRvQHKoJffvHAohbSL0J-39" value="" style="shape=waypoint;sketch=0;fillStyle=solid;size=6;pointerEvents=1;points=[];fillColor=none;resizable=0;rotatable=0;perimeter=centerPerimeter;snapToPoint=1;" vertex="1" parent="1">
          <mxGeometry x="2140" y="1370" width="20" height="20" as="geometry" />
        </mxCell>
        <mxCell id="QRvQHKoJffvHAohbSL0J-40" value="" style="endArrow=none;html=1;rounded=0;entryX=0.395;entryY=0.35;entryDx=0;entryDy=0;entryPerimeter=0;" edge="1" parent="1" target="QRvQHKoJffvHAohbSL0J-39">
          <mxGeometry width="50" height="50" relative="1" as="geometry">
            <mxPoint x="1950" y="1420" as="sourcePoint" />
            <mxPoint x="2150" y="1440" as="targetPoint" />
            <Array as="points">
              <mxPoint x="1950" y="1380" />
            </Array>
          </mxGeometry>
        </mxCell>
        <mxCell id="QRvQHKoJffvHAohbSL0J-41" value="" style="endArrow=classic;html=1;rounded=0;" edge="1" parent="1" source="QRvQHKoJffvHAohbSL0J-54">
          <mxGeometry width="50" height="50" relative="1" as="geometry">
            <mxPoint x="2330" y="1510" as="sourcePoint" />
            <mxPoint x="2400" y="1509.52" as="targetPoint" />
          </mxGeometry>
        </mxCell>
        <mxCell id="QRvQHKoJffvHAohbSL0J-42" value="" style="endArrow=classic;html=1;rounded=0;exitX=1;exitY=0.5;exitDx=0;exitDy=0;" edge="1" parent="1" source="QRvQHKoJffvHAohbSL0J-22">
          <mxGeometry width="50" height="50" relative="1" as="geometry">
            <mxPoint x="2310" y="1549.72" as="sourcePoint" />
            <mxPoint x="2400" y="1549.72" as="targetPoint" />
          </mxGeometry>
        </mxCell>
        <mxCell id="QRvQHKoJffvHAohbSL0J-43" value="" style="endArrow=classic;html=1;rounded=0;exitX=1.001;exitY=0.699;exitDx=0;exitDy=0;exitPerimeter=0;" edge="1" parent="1" source="QRvQHKoJffvHAohbSL0J-22">
          <mxGeometry width="50" height="50" relative="1" as="geometry">
            <mxPoint x="2310" y="1589.72" as="sourcePoint" />
            <mxPoint x="2400" y="1589.72" as="targetPoint" />
          </mxGeometry>
        </mxCell>
        <mxCell id="QRvQHKoJffvHAohbSL0J-44" value="" style="endArrow=classic;html=1;rounded=0;exitX=0.999;exitY=0.898;exitDx=0;exitDy=0;exitPerimeter=0;" edge="1" parent="1" source="QRvQHKoJffvHAohbSL0J-22">
          <mxGeometry width="50" height="50" relative="1" as="geometry">
            <mxPoint x="2310" y="1629.72" as="sourcePoint" />
            <mxPoint x="2400" y="1629.72" as="targetPoint" />
          </mxGeometry>
        </mxCell>
        <mxCell id="QRvQHKoJffvHAohbSL0J-45" value="&lt;b&gt;&lt;font style=&quot;font-size: 16px;&quot;&gt;HDMI_TX&lt;/font&gt;&lt;/b&gt;" style="rounded=0;whiteSpace=wrap;html=1;" vertex="1" parent="1">
          <mxGeometry x="2400" y="1400" width="120" height="280" as="geometry" />
        </mxCell>
        <mxCell id="QRvQHKoJffvHAohbSL0J-46" value="" style="shape=waypoint;sketch=0;fillStyle=solid;size=6;pointerEvents=1;points=[];fillColor=none;resizable=0;rotatable=0;perimeter=centerPerimeter;snapToPoint=1;" vertex="1" parent="1">
          <mxGeometry x="2340" y="1370" width="20" height="20" as="geometry" />
        </mxCell>
        <mxCell id="QRvQHKoJffvHAohbSL0J-47" value="" style="endArrow=none;html=1;rounded=0;exitX=0.579;exitY=0.567;exitDx=0;exitDy=0;exitPerimeter=0;entryX=0.717;entryY=0.498;entryDx=0;entryDy=0;entryPerimeter=0;" edge="1" parent="1" source="QRvQHKoJffvHAohbSL0J-39" target="QRvQHKoJffvHAohbSL0J-46">
          <mxGeometry width="50" height="50" relative="1" as="geometry">
            <mxPoint x="2400" y="1440" as="sourcePoint" />
            <mxPoint x="2450" y="1390" as="targetPoint" />
          </mxGeometry>
        </mxCell>
        <mxCell id="QRvQHKoJffvHAohbSL0J-48" value="" style="endArrow=classic;html=1;rounded=0;exitX=0.614;exitY=0.567;exitDx=0;exitDy=0;exitPerimeter=0;" edge="1" parent="1" source="QRvQHKoJffvHAohbSL0J-46">
          <mxGeometry width="50" height="50" relative="1" as="geometry">
            <mxPoint x="2400" y="1440" as="sourcePoint" />
            <mxPoint x="2400" y="1465" as="targetPoint" />
            <Array as="points">
              <mxPoint x="2350" y="1465" />
            </Array>
          </mxGeometry>
        </mxCell>
        <mxCell id="QRvQHKoJffvHAohbSL0J-49" value="pixel" style="text;html=1;align=center;verticalAlign=middle;resizable=0;points=[];autosize=1;strokeColor=none;fillColor=none;" vertex="1" parent="1">
          <mxGeometry x="2330" y="1480" width="50" height="30" as="geometry" />
        </mxCell>
        <mxCell id="QRvQHKoJffvHAohbSL0J-50" value="valid" style="text;html=1;align=center;verticalAlign=middle;resizable=0;points=[];autosize=1;strokeColor=none;fillColor=none;" vertex="1" parent="1">
          <mxGeometry x="2325" y="1520" width="50" height="30" as="geometry" />
        </mxCell>
        <mxCell id="QRvQHKoJffvHAohbSL0J-51" value="hsync" style="text;html=1;align=center;verticalAlign=middle;resizable=0;points=[];autosize=1;strokeColor=none;fillColor=none;" vertex="1" parent="1">
          <mxGeometry x="2325" y="1560" width="50" height="30" as="geometry" />
        </mxCell>
        <mxCell id="QRvQHKoJffvHAohbSL0J-52" value="vsync" style="text;html=1;align=center;verticalAlign=middle;resizable=0;points=[];autosize=1;strokeColor=none;fillColor=none;" vertex="1" parent="1">
          <mxGeometry x="2325" y="1600" width="50" height="30" as="geometry" />
        </mxCell>
        <mxCell id="QRvQHKoJffvHAohbSL0J-55" value="" style="endArrow=classic;html=1;rounded=0;" edge="1" parent="1" target="QRvQHKoJffvHAohbSL0J-54">
          <mxGeometry width="50" height="50" relative="1" as="geometry">
            <mxPoint x="2330" y="1510" as="sourcePoint" />
            <mxPoint x="2400" y="1509.52" as="targetPoint" />
          </mxGeometry>
        </mxCell>
        <mxCell id="QRvQHKoJffvHAohbSL0J-54" value="" style="shape=waypoint;sketch=0;fillStyle=solid;size=6;pointerEvents=1;points=[];fillColor=none;resizable=0;rotatable=0;perimeter=centerPerimeter;snapToPoint=1;" vertex="1" parent="1">
          <mxGeometry x="2320" y="1500" width="20" height="20" as="geometry" />
        </mxCell>
        <mxCell id="QRvQHKoJffvHAohbSL0J-56" value="" style="endArrow=none;html=1;rounded=0;exitX=0.999;exitY=0.301;exitDx=0;exitDy=0;exitPerimeter=0;" edge="1" parent="1" source="QRvQHKoJffvHAohbSL0J-22" target="QRvQHKoJffvHAohbSL0J-54">
          <mxGeometry width="50" height="50" relative="1" as="geometry">
            <mxPoint x="2360" y="1510" as="sourcePoint" />
            <mxPoint x="2410" y="1460" as="targetPoint" />
          </mxGeometry>
        </mxCell>
        <mxCell id="QRvQHKoJffvHAohbSL0J-57" value="" style="endArrow=classic;html=1;rounded=0;exitX=0.848;exitY=0.326;exitDx=0;exitDy=0;exitPerimeter=0;entryX=0;entryY=0.5;entryDx=0;entryDy=0;" edge="1" parent="1" source="QRvQHKoJffvHAohbSL0J-54" target="-j1M3_zacKew2DGcaHdr-2">
          <mxGeometry width="50" height="50" relative="1" as="geometry">
            <mxPoint x="2390" y="1490" as="sourcePoint" />
            <mxPoint x="2330" y="1320" as="targetPoint" />
            <Array as="points">
              <mxPoint x="2330" y="1280" />
            </Array>
          </mxGeometry>
        </mxCell>
        <mxCell id="-j1M3_zacKew2DGcaHdr-2" value="&lt;b style=&quot;font-size: 16px;&quot;&gt;HISTOGRAM&lt;br&gt;CALC&lt;/b&gt;" style="whiteSpace=wrap;html=1;aspect=fixed;" vertex="1" parent="1">
          <mxGeometry x="2400" y="1220" width="120" height="120" as="geometry" />
        </mxCell>
        <mxCell id="-j1M3_zacKew2DGcaHdr-3" value="" style="endArrow=classic;html=1;rounded=0;exitX=0.65;exitY=0.2;exitDx=0;exitDy=0;exitPerimeter=0;entryX=0;entryY=0.75;entryDx=0;entryDy=0;" edge="1" parent="1" source="QRvQHKoJffvHAohbSL0J-46" target="-j1M3_zacKew2DGcaHdr-2">
          <mxGeometry width="50" height="50" relative="1" as="geometry">
            <mxPoint x="2280" y="1290" as="sourcePoint" />
            <mxPoint x="2330" y="1240" as="targetPoint" />
            <Array as="points">
              <mxPoint x="2350" y="1310" />
            </Array>
          </mxGeometry>
        </mxCell>
        <mxCell id="-j1M3_zacKew2DGcaHdr-4" value="" style="shape=flexArrow;endArrow=classic;html=1;rounded=0;entryX=0.5;entryY=0;entryDx=0;entryDy=0;strokeColor=none;fillColor=#A3A3A3;" edge="1" parent="1" target="QRvQHKoJffvHAohbSL0J-22">
          <mxGeometry width="50" height="50" relative="1" as="geometry">
            <mxPoint x="2245" y="1180" as="sourcePoint" />
            <mxPoint x="2330" y="1140" as="targetPoint" />
          </mxGeometry>
        </mxCell>
        <mxCell id="-j1M3_zacKew2DGcaHdr-6" value="&lt;b&gt;&lt;font style=&quot;font-size: 16px;&quot;&gt;APB&lt;/font&gt;&lt;/b&gt;" style="text;html=1;align=center;verticalAlign=middle;resizable=0;points=[];autosize=1;strokeColor=none;fillColor=none;" vertex="1" parent="1">
          <mxGeometry x="2180" y="1248" width="60" height="30" as="geometry" />
        </mxCell>
        <mxCell id="-j1M3_zacKew2DGcaHdr-7" value="" style="shape=flexArrow;endArrow=classic;html=1;rounded=0;strokeColor=none;fillColor=#A3A3A3;exitX=1;exitY=0.5;exitDx=0;exitDy=0;" edge="1" parent="1" source="QRvQHKoJffvHAohbSL0J-45">
          <mxGeometry width="50" height="50" relative="1" as="geometry">
            <mxPoint x="2260" y="1190" as="sourcePoint" />
            <mxPoint x="2600" y="1540" as="targetPoint" />
          </mxGeometry>
        </mxCell>
        <mxCell id="-j1M3_zacKew2DGcaHdr-8" value="" style="shape=flexArrow;endArrow=classic;html=1;rounded=0;entryX=0;entryY=0.5;entryDx=0;entryDy=0;strokeColor=none;fillColor=#A3A3A3;" edge="1" parent="1" target="QRvQHKoJffvHAohbSL0J-1">
          <mxGeometry width="50" height="50" relative="1" as="geometry">
            <mxPoint x="1720" y="1540" as="sourcePoint" />
            <mxPoint x="2270" y="1470" as="targetPoint" />
          </mxGeometry>
        </mxCell>
        <mxCell id="-j1M3_zacKew2DGcaHdr-9" value="" style="shape=flexArrow;endArrow=classic;startArrow=classic;html=1;rounded=0;strokeColor=none;fillColor=#A3A3A3;entryX=0;entryY=0.25;entryDx=0;entryDy=0;" edge="1" parent="1" target="-j1M3_zacKew2DGcaHdr-2">
          <mxGeometry width="100" height="100" relative="1" as="geometry">
            <mxPoint x="2250" y="1250" as="sourcePoint" />
            <mxPoint x="2360" y="1360" as="targetPoint" />
          </mxGeometry>
        </mxCell>
      </root>
    </mxGraphModel>
  </diagram>
  <diagram id="GxlgiPIgKDngJX5x1mbp" name="Histogram Calc">
    <mxGraphModel dx="3790" dy="1777" grid="1" gridSize="10" guides="1" tooltips="1" connect="1" arrows="1" fold="1" page="1" pageScale="1" pageWidth="827" pageHeight="1169" math="0" shadow="0">
      <root>
        <mxCell id="0" />
        <mxCell id="1" parent="0" />
        <mxCell id="UtbIzWJ--JyeVw-dWGCM-1" value="&lt;b&gt;&lt;font style=&quot;font-size: 16px;&quot;&gt;DP_BRAM_HIST&lt;/font&gt;&lt;/b&gt;" style="rounded=0;whiteSpace=wrap;html=1;" vertex="1" parent="1">
          <mxGeometry x="160" y="360" width="240" height="310" as="geometry" />
        </mxCell>
        <mxCell id="UtbIzWJ--JyeVw-dWGCM-2" value="clk_A" style="text;html=1;align=left;verticalAlign=middle;resizable=0;points=[];autosize=1;strokeColor=none;fillColor=none;fontStyle=1" vertex="1" parent="1">
          <mxGeometry x="160" y="380" width="60" height="30" as="geometry" />
        </mxCell>
        <mxCell id="UtbIzWJ--JyeVw-dWGCM-3" value="addr_A" style="text;html=1;align=left;verticalAlign=middle;resizable=0;points=[];autosize=1;strokeColor=none;fillColor=none;fontStyle=1" vertex="1" parent="1">
          <mxGeometry x="160" y="410" width="60" height="30" as="geometry" />
        </mxCell>
        <mxCell id="UtbIzWJ--JyeVw-dWGCM-4" value="dout_A" style="text;html=1;align=right;verticalAlign=middle;resizable=0;points=[];autosize=1;strokeColor=none;fillColor=none;fontStyle=1" vertex="1" parent="1">
          <mxGeometry x="340" y="400" width="60" height="30" as="geometry" />
        </mxCell>
        <mxCell id="UtbIzWJ--JyeVw-dWGCM-5" value="clk_B" style="text;html=1;align=left;verticalAlign=middle;resizable=0;points=[];autosize=1;strokeColor=none;fillColor=none;fontStyle=1" vertex="1" parent="1">
          <mxGeometry x="160" y="520" width="60" height="30" as="geometry" />
        </mxCell>
        <mxCell id="UtbIzWJ--JyeVw-dWGCM-6" value="wr_en_B" style="text;html=1;align=left;verticalAlign=middle;resizable=0;points=[];autosize=1;strokeColor=none;fillColor=none;fontStyle=1" vertex="1" parent="1">
          <mxGeometry x="160" y="562.25" width="70" height="30" as="geometry" />
        </mxCell>
        <mxCell id="UtbIzWJ--JyeVw-dWGCM-7" value="din_B" style="text;html=1;align=left;verticalAlign=middle;resizable=0;points=[];autosize=1;strokeColor=none;fillColor=none;fontStyle=1" vertex="1" parent="1">
          <mxGeometry x="160" y="625" width="60" height="30" as="geometry" />
        </mxCell>
        <mxCell id="UtbIzWJ--JyeVw-dWGCM-8" value="addr_B" style="text;html=1;align=left;verticalAlign=middle;resizable=0;points=[];autosize=1;strokeColor=none;fillColor=none;fontStyle=1" vertex="1" parent="1">
          <mxGeometry x="160" y="540" width="60" height="30" as="geometry" />
        </mxCell>
        <mxCell id="UtbIzWJ--JyeVw-dWGCM-9" value="" style="endArrow=classic;html=1;rounded=0;entryX=-0.003;entryY=0.512;entryDx=0;entryDy=0;entryPerimeter=0;" edge="1" parent="1" source="NpqvpwmYFH9KsZ0MOtwq-9" target="UtbIzWJ--JyeVw-dWGCM-2">
          <mxGeometry width="50" height="50" relative="1" as="geometry">
            <mxPoint x="80" y="395" as="sourcePoint" />
            <mxPoint x="330" y="470" as="targetPoint" />
          </mxGeometry>
        </mxCell>
        <mxCell id="UtbIzWJ--JyeVw-dWGCM-10" value="hdmi_clk" style="text;html=1;align=center;verticalAlign=middle;resizable=0;points=[];autosize=1;strokeColor=none;fillColor=none;" vertex="1" parent="1">
          <mxGeometry y="370" width="70" height="30" as="geometry" />
        </mxCell>
        <mxCell id="NpqvpwmYFH9KsZ0MOtwq-3" value="" style="shape=trapezoid;perimeter=trapezoidPerimeter;whiteSpace=wrap;html=1;fixedSize=1;rotation=90;" vertex="1" parent="1">
          <mxGeometry x="-120" y="412.5" width="82.5" height="25" as="geometry" />
        </mxCell>
        <mxCell id="NpqvpwmYFH9KsZ0MOtwq-4" value="" style="endArrow=classic;html=1;rounded=0;entryX=0.258;entryY=0.998;entryDx=0;entryDy=0;entryPerimeter=0;" edge="1" parent="1" source="NpqvpwmYFH9KsZ0MOtwq-16" target="NpqvpwmYFH9KsZ0MOtwq-3">
          <mxGeometry width="50" height="50" relative="1" as="geometry">
            <mxPoint x="-110" y="404" as="sourcePoint" />
            <mxPoint x="510" y="450" as="targetPoint" />
          </mxGeometry>
        </mxCell>
        <mxCell id="NpqvpwmYFH9KsZ0MOtwq-5" value="i_hdmi_addr" style="text;html=1;align=center;verticalAlign=middle;resizable=0;points=[];autosize=1;strokeColor=none;fillColor=none;" vertex="1" parent="1">
          <mxGeometry x="-250" y="390" width="90" height="30" as="geometry" />
        </mxCell>
        <mxCell id="NpqvpwmYFH9KsZ0MOtwq-6" value="&lt;b&gt;ADDR_CNTR&lt;/b&gt;" style="whiteSpace=wrap;html=1;aspect=fixed;" vertex="1" parent="1">
          <mxGeometry x="-170" y="660" width="80" height="80" as="geometry" />
        </mxCell>
        <mxCell id="NpqvpwmYFH9KsZ0MOtwq-8" value="" style="endArrow=classic;html=1;rounded=0;exitX=0.5;exitY=0;exitDx=0;exitDy=0;entryX=0;entryY=0.49;entryDx=0;entryDy=0;entryPerimeter=0;" edge="1" parent="1" source="NpqvpwmYFH9KsZ0MOtwq-3" target="UtbIzWJ--JyeVw-dWGCM-3">
          <mxGeometry width="50" height="50" relative="1" as="geometry">
            <mxPoint x="460" y="500" as="sourcePoint" />
            <mxPoint x="510" y="450" as="targetPoint" />
          </mxGeometry>
        </mxCell>
        <mxCell id="NpqvpwmYFH9KsZ0MOtwq-10" value="" style="endArrow=classic;html=1;rounded=0;entryDx=0;entryDy=0;entryPerimeter=0;" edge="1" parent="1" target="NpqvpwmYFH9KsZ0MOtwq-9">
          <mxGeometry width="50" height="50" relative="1" as="geometry">
            <mxPoint x="80" y="395" as="sourcePoint" />
            <mxPoint x="160" y="395" as="targetPoint" />
          </mxGeometry>
        </mxCell>
        <mxCell id="NpqvpwmYFH9KsZ0MOtwq-9" value="" style="shape=waypoint;sketch=0;fillStyle=solid;size=6;pointerEvents=1;points=[];fillColor=none;resizable=0;rotatable=0;perimeter=centerPerimeter;snapToPoint=1;" vertex="1" parent="1">
          <mxGeometry x="70" y="385" width="20" height="20" as="geometry" />
        </mxCell>
        <mxCell id="NpqvpwmYFH9KsZ0MOtwq-11" value="" style="endArrow=none;html=1;rounded=0;entryX=0.5;entryY=0.817;entryDx=0;entryDy=0;entryPerimeter=0;" edge="1" parent="1" target="NpqvpwmYFH9KsZ0MOtwq-9">
          <mxGeometry width="50" height="50" relative="1" as="geometry">
            <mxPoint y="395" as="sourcePoint" />
            <mxPoint x="370" y="520" as="targetPoint" />
          </mxGeometry>
        </mxCell>
        <mxCell id="NpqvpwmYFH9KsZ0MOtwq-12" value="" style="endArrow=classic;html=1;rounded=0;entryX=0.008;entryY=0.498;entryDx=0;entryDy=0;entryPerimeter=0;" edge="1" parent="1" source="NpqvpwmYFH9KsZ0MOtwq-9" target="UtbIzWJ--JyeVw-dWGCM-5">
          <mxGeometry width="50" height="50" relative="1" as="geometry">
            <mxPoint x="320" y="570" as="sourcePoint" />
            <mxPoint x="370" y="520" as="targetPoint" />
            <Array as="points">
              <mxPoint x="80" y="535" />
            </Array>
          </mxGeometry>
        </mxCell>
        <mxCell id="NpqvpwmYFH9KsZ0MOtwq-13" value="" style="shape=trapezoid;perimeter=trapezoidPerimeter;whiteSpace=wrap;html=1;fixedSize=1;rotation=90;" vertex="1" parent="1">
          <mxGeometry x="-50" y="542.5" width="82.5" height="25" as="geometry" />
        </mxCell>
        <mxCell id="NpqvpwmYFH9KsZ0MOtwq-14" value="" style="rounded=0;whiteSpace=wrap;html=1;" vertex="1" parent="1">
          <mxGeometry x="-60" y="520" width="20" height="30" as="geometry" />
        </mxCell>
        <mxCell id="NpqvpwmYFH9KsZ0MOtwq-15" value="" style="endArrow=classic;html=1;rounded=0;entryX=0.258;entryY=1.004;entryDx=0;entryDy=0;exitX=1;exitY=0.5;exitDx=0;exitDy=0;entryPerimeter=0;" edge="1" parent="1" source="NpqvpwmYFH9KsZ0MOtwq-14" target="NpqvpwmYFH9KsZ0MOtwq-13">
          <mxGeometry width="50" height="50" relative="1" as="geometry">
            <mxPoint x="130" y="470" as="sourcePoint" />
            <mxPoint x="180" y="420" as="targetPoint" />
          </mxGeometry>
        </mxCell>
        <mxCell id="NpqvpwmYFH9KsZ0MOtwq-16" value="" style="shape=waypoint;sketch=0;fillStyle=solid;size=6;pointerEvents=1;points=[];fillColor=none;resizable=0;rotatable=0;perimeter=centerPerimeter;snapToPoint=1;" vertex="1" parent="1">
          <mxGeometry x="-120" y="395" width="20" height="20" as="geometry" />
        </mxCell>
        <mxCell id="NpqvpwmYFH9KsZ0MOtwq-18" value="" style="endArrow=classic;html=1;rounded=0;entryX=0;entryY=0.5;entryDx=0;entryDy=0;" edge="1" parent="1" source="NpqvpwmYFH9KsZ0MOtwq-16" target="NpqvpwmYFH9KsZ0MOtwq-14">
          <mxGeometry width="50" height="50" relative="1" as="geometry">
            <mxPoint x="30" y="490" as="sourcePoint" />
            <mxPoint x="80" y="440" as="targetPoint" />
            <Array as="points">
              <mxPoint x="-110" y="535" />
            </Array>
          </mxGeometry>
        </mxCell>
        <mxCell id="NpqvpwmYFH9KsZ0MOtwq-19" value="" style="endArrow=none;html=1;rounded=0;exitX=1.009;exitY=0.503;exitDx=0;exitDy=0;exitPerimeter=0;" edge="1" parent="1" source="NpqvpwmYFH9KsZ0MOtwq-5" target="NpqvpwmYFH9KsZ0MOtwq-16">
          <mxGeometry width="50" height="50" relative="1" as="geometry">
            <mxPoint x="-150" y="405" as="sourcePoint" />
            <mxPoint x="80" y="440" as="targetPoint" />
          </mxGeometry>
        </mxCell>
        <mxCell id="NpqvpwmYFH9KsZ0MOtwq-20" value="" style="shape=waypoint;sketch=0;fillStyle=solid;size=6;pointerEvents=1;points=[];fillColor=none;resizable=0;rotatable=0;perimeter=centerPerimeter;snapToPoint=1;" vertex="1" parent="1">
          <mxGeometry x="-140" y="565" width="20" height="20" as="geometry" />
        </mxCell>
        <mxCell id="NpqvpwmYFH9KsZ0MOtwq-22" value="" style="endArrow=classic;html=1;rounded=0;exitX=0.538;exitY=0.302;exitDx=0;exitDy=0;exitPerimeter=0;entryX=0.734;entryY=1.015;entryDx=0;entryDy=0;entryPerimeter=0;" edge="1" parent="1" source="NpqvpwmYFH9KsZ0MOtwq-20" target="NpqvpwmYFH9KsZ0MOtwq-13">
          <mxGeometry width="50" height="50" relative="1" as="geometry">
            <mxPoint x="-130" y="580" as="sourcePoint" />
            <mxPoint x="-80" y="530" as="targetPoint" />
          </mxGeometry>
        </mxCell>
        <mxCell id="NpqvpwmYFH9KsZ0MOtwq-24" value="" style="endArrow=classic;html=1;rounded=0;entryX=-0.01;entryY=0.506;entryDx=0;entryDy=0;entryPerimeter=0;exitX=0.5;exitY=0;exitDx=0;exitDy=0;" edge="1" parent="1" source="NpqvpwmYFH9KsZ0MOtwq-13" target="UtbIzWJ--JyeVw-dWGCM-8">
          <mxGeometry width="50" height="50" relative="1" as="geometry">
            <mxPoint x="-150" y="570" as="sourcePoint" />
            <mxPoint x="-100" y="520" as="targetPoint" />
          </mxGeometry>
        </mxCell>
        <mxCell id="NpqvpwmYFH9KsZ0MOtwq-26" value="" style="endArrow=none;html=1;rounded=0;exitX=0.5;exitY=0;exitDx=0;exitDy=0;entryX=0.415;entryY=0.326;entryDx=0;entryDy=0;entryPerimeter=0;" edge="1" parent="1" source="NpqvpwmYFH9KsZ0MOtwq-6" target="NpqvpwmYFH9KsZ0MOtwq-20">
          <mxGeometry width="50" height="50" relative="1" as="geometry">
            <mxPoint y="410" as="sourcePoint" />
            <mxPoint x="50" y="360" as="targetPoint" />
          </mxGeometry>
        </mxCell>
        <mxCell id="NpqvpwmYFH9KsZ0MOtwq-29" value="" style="edgeStyle=orthogonalEdgeStyle;rounded=0;orthogonalLoop=1;jettySize=auto;html=1;" edge="1" parent="1" source="NpqvpwmYFH9KsZ0MOtwq-33" target="NpqvpwmYFH9KsZ0MOtwq-13">
          <mxGeometry relative="1" as="geometry">
            <mxPoint x="-40" y="636" as="sourcePoint" />
          </mxGeometry>
        </mxCell>
        <mxCell id="NpqvpwmYFH9KsZ0MOtwq-27" value="&lt;b&gt;RST_REG&lt;/b&gt;" style="rounded=0;whiteSpace=wrap;html=1;" vertex="1" parent="1">
          <mxGeometry x="-41.25" y="685" width="65" height="30" as="geometry" />
        </mxCell>
        <mxCell id="NpqvpwmYFH9KsZ0MOtwq-28" value="" style="endArrow=classic;html=1;rounded=0;exitX=1;exitY=0.5;exitDx=0;exitDy=0;entryX=0;entryY=0.5;entryDx=0;entryDy=0;" edge="1" parent="1" source="NpqvpwmYFH9KsZ0MOtwq-6" target="NpqvpwmYFH9KsZ0MOtwq-27">
          <mxGeometry width="50" height="50" relative="1" as="geometry">
            <mxPoint x="150" y="350" as="sourcePoint" />
            <mxPoint x="200" y="300" as="targetPoint" />
          </mxGeometry>
        </mxCell>
        <mxCell id="NpqvpwmYFH9KsZ0MOtwq-30" value="r_addr_cntr" style="text;html=1;align=center;verticalAlign=middle;resizable=0;points=[];autosize=1;strokeColor=none;fillColor=none;" vertex="1" parent="1">
          <mxGeometry x="-210" y="598" width="80" height="30" as="geometry" />
        </mxCell>
        <mxCell id="NpqvpwmYFH9KsZ0MOtwq-31" value="w_rst" style="text;html=1;align=center;verticalAlign=middle;resizable=0;points=[];autosize=1;strokeColor=none;fillColor=none;rotation=0;" vertex="1" parent="1">
          <mxGeometry x="-91.25" y="700" width="50" height="30" as="geometry" />
        </mxCell>
        <mxCell id="NpqvpwmYFH9KsZ0MOtwq-32" value="r_rst" style="text;html=1;align=center;verticalAlign=middle;resizable=0;points=[];autosize=1;strokeColor=none;fillColor=none;" vertex="1" parent="1">
          <mxGeometry x="-10" y="655" width="50" height="30" as="geometry" />
        </mxCell>
        <mxCell id="NpqvpwmYFH9KsZ0MOtwq-33" value="" style="shape=waypoint;sketch=0;fillStyle=solid;size=6;pointerEvents=1;points=[];fillColor=none;resizable=0;rotatable=0;perimeter=centerPerimeter;snapToPoint=1;" vertex="1" parent="1">
          <mxGeometry x="-18.75" y="640" width="20" height="20" as="geometry" />
        </mxCell>
        <mxCell id="NpqvpwmYFH9KsZ0MOtwq-35" value="" style="endArrow=none;html=1;rounded=0;exitX=0.5;exitY=0;exitDx=0;exitDy=0;entryX=0.521;entryY=0.583;entryDx=0;entryDy=0;entryPerimeter=0;" edge="1" parent="1" source="NpqvpwmYFH9KsZ0MOtwq-27" target="NpqvpwmYFH9KsZ0MOtwq-33">
          <mxGeometry width="50" height="50" relative="1" as="geometry">
            <mxPoint y="720" as="sourcePoint" />
            <mxPoint x="50" y="670" as="targetPoint" />
          </mxGeometry>
        </mxCell>
        <mxCell id="NpqvpwmYFH9KsZ0MOtwq-36" value="" style="endArrow=classic;html=1;rounded=0;exitX=0.588;exitY=0.583;exitDx=0;exitDy=0;exitPerimeter=0;entryX=1;entryY=0.5;entryDx=0;entryDy=0;" edge="1" parent="1" source="NpqvpwmYFH9KsZ0MOtwq-33" target="NpqvpwmYFH9KsZ0MOtwq-3">
          <mxGeometry width="50" height="50" relative="1" as="geometry">
            <mxPoint y="650" as="sourcePoint" />
            <mxPoint x="50" y="600" as="targetPoint" />
            <Array as="points">
              <mxPoint x="-79" y="650" />
            </Array>
          </mxGeometry>
        </mxCell>
        <mxCell id="NpqvpwmYFH9KsZ0MOtwq-37" value="" style="rounded=0;whiteSpace=wrap;html=1;" vertex="1" parent="1">
          <mxGeometry x="-110" y="830" width="20" height="30" as="geometry" />
        </mxCell>
        <mxCell id="NpqvpwmYFH9KsZ0MOtwq-38" value="" style="rounded=0;whiteSpace=wrap;html=1;" vertex="1" parent="1">
          <mxGeometry x="-37.5" y="830" width="20" height="30" as="geometry" />
        </mxCell>
        <mxCell id="NpqvpwmYFH9KsZ0MOtwq-39" value="" style="endArrow=classic;html=1;rounded=0;entryX=0;entryY=0.5;entryDx=0;entryDy=0;" edge="1" parent="1" target="NpqvpwmYFH9KsZ0MOtwq-37">
          <mxGeometry width="50" height="50" relative="1" as="geometry">
            <mxPoint x="-180" y="845" as="sourcePoint" />
            <mxPoint x="220" y="600" as="targetPoint" />
          </mxGeometry>
        </mxCell>
        <mxCell id="NpqvpwmYFH9KsZ0MOtwq-40" value="" style="endArrow=classic;html=1;rounded=0;exitX=1;exitY=0.5;exitDx=0;exitDy=0;entryX=0;entryY=0.5;entryDx=0;entryDy=0;" edge="1" parent="1" source="NpqvpwmYFH9KsZ0MOtwq-37" target="NpqvpwmYFH9KsZ0MOtwq-38">
          <mxGeometry width="50" height="50" relative="1" as="geometry">
            <mxPoint x="170" y="650" as="sourcePoint" />
            <mxPoint x="220" y="600" as="targetPoint" />
          </mxGeometry>
        </mxCell>
        <mxCell id="NpqvpwmYFH9KsZ0MOtwq-41" value="" style="endArrow=classic;html=1;rounded=0;exitX=1;exitY=0.5;exitDx=0;exitDy=0;entryX=0.175;entryY=0.75;entryDx=0;entryDy=0;entryPerimeter=0;" edge="1" parent="1" source="NpqvpwmYFH9KsZ0MOtwq-38" target="NpqvpwmYFH9KsZ0MOtwq-43">
          <mxGeometry width="50" height="50" relative="1" as="geometry">
            <mxPoint x="170" y="650" as="sourcePoint" />
            <mxPoint x="60" y="670" as="targetPoint" />
            <Array as="points">
              <mxPoint x="40" y="845" />
              <mxPoint x="40" y="584" />
            </Array>
          </mxGeometry>
        </mxCell>
        <mxCell id="NpqvpwmYFH9KsZ0MOtwq-43" value="" style="shape=xor;whiteSpace=wrap;html=1;" vertex="1" parent="1">
          <mxGeometry x="70" y="564.5" width="30" height="25.5" as="geometry" />
        </mxCell>
        <mxCell id="NpqvpwmYFH9KsZ0MOtwq-44" value="" style="endArrow=classic;html=1;rounded=0;exitX=1;exitY=0.5;exitDx=0;exitDy=0;exitPerimeter=0;entryX=-0.006;entryY=0.51;entryDx=0;entryDy=0;entryPerimeter=0;" edge="1" parent="1" source="NpqvpwmYFH9KsZ0MOtwq-43" target="UtbIzWJ--JyeVw-dWGCM-6">
          <mxGeometry width="50" height="50" relative="1" as="geometry">
            <mxPoint x="20" y="590" as="sourcePoint" />
            <mxPoint x="160" y="577" as="targetPoint" />
          </mxGeometry>
        </mxCell>
        <mxCell id="NpqvpwmYFH9KsZ0MOtwq-45" value="i_hdmi_valid" style="text;html=1;align=center;verticalAlign=middle;resizable=0;points=[];autosize=1;strokeColor=none;fillColor=none;" vertex="1" parent="1">
          <mxGeometry x="-265" y="830" width="90" height="30" as="geometry" />
        </mxCell>
        <mxCell id="NpqvpwmYFH9KsZ0MOtwq-46" value="" style="endArrow=classic;html=1;rounded=0;entryX=0.5;entryY=1;entryDx=0;entryDy=0;" edge="1" parent="1" target="NpqvpwmYFH9KsZ0MOtwq-27">
          <mxGeometry width="50" height="50" relative="1" as="geometry">
            <mxPoint x="-180" y="790" as="sourcePoint" />
            <mxPoint x="250" y="590" as="targetPoint" />
            <Array as="points">
              <mxPoint x="-9" y="790" />
            </Array>
          </mxGeometry>
        </mxCell>
        <mxCell id="NpqvpwmYFH9KsZ0MOtwq-47" value="i_rst_hist" style="text;html=1;align=center;verticalAlign=middle;resizable=0;points=[];autosize=1;strokeColor=none;fillColor=none;" vertex="1" parent="1">
          <mxGeometry x="-245" y="770" width="70" height="30" as="geometry" />
        </mxCell>
        <mxCell id="PySuD5hHJZ6jfGDc9yaR-1" value="&lt;span&gt;&lt;font style=&quot;font-size: 29px;&quot;&gt;+&lt;/font&gt;&lt;/span&gt;" style="rounded=1;whiteSpace=wrap;html=1;rotation=90;fontStyle=0" vertex="1" parent="1">
          <mxGeometry x="255" y="680" width="50" height="45" as="geometry" />
        </mxCell>
        <mxCell id="PySuD5hHJZ6jfGDc9yaR-3" value="" style="endArrow=classic;html=1;rounded=0;entryX=0.75;entryY=0;entryDx=0;entryDy=0;exitX=0.012;exitY=0.501;exitDx=0;exitDy=0;exitPerimeter=0;" edge="1" parent="1" source="PySuD5hHJZ6jfGDc9yaR-5" target="PySuD5hHJZ6jfGDc9yaR-1">
          <mxGeometry width="50" height="50" relative="1" as="geometry">
            <mxPoint x="410" y="720" as="sourcePoint" />
            <mxPoint x="270" y="630" as="targetPoint" />
          </mxGeometry>
        </mxCell>
        <mxCell id="PySuD5hHJZ6jfGDc9yaR-5" value="&lt;font style=&quot;font-size: 16px;&quot;&gt;1&lt;/font&gt;" style="text;html=1;align=center;verticalAlign=middle;resizable=0;points=[];autosize=1;strokeColor=none;fillColor=none;" vertex="1" parent="1">
          <mxGeometry x="410" y="700" width="30" height="30" as="geometry" />
        </mxCell>
        <mxCell id="PySuD5hHJZ6jfGDc9yaR-7" value="" style="rounded=0;whiteSpace=wrap;html=1;" vertex="1" parent="1">
          <mxGeometry x="210" y="687.5" width="20" height="30" as="geometry" />
        </mxCell>
        <mxCell id="PySuD5hHJZ6jfGDc9yaR-8" value="" style="endArrow=classic;html=1;rounded=0;entryX=1;entryY=0.5;entryDx=0;entryDy=0;exitX=0.5;exitY=1;exitDx=0;exitDy=0;" edge="1" parent="1" source="PySuD5hHJZ6jfGDc9yaR-1" target="PySuD5hHJZ6jfGDc9yaR-7">
          <mxGeometry width="50" height="50" relative="1" as="geometry">
            <mxPoint x="-40" y="640" as="sourcePoint" />
            <mxPoint x="10" y="590" as="targetPoint" />
          </mxGeometry>
        </mxCell>
        <mxCell id="PySuD5hHJZ6jfGDc9yaR-9" value="" style="endArrow=classic;html=1;rounded=0;exitX=0;exitY=0.5;exitDx=0;exitDy=0;entryX=0.75;entryY=1;entryDx=0;entryDy=0;" edge="1" parent="1" source="PySuD5hHJZ6jfGDc9yaR-7" target="PySuD5hHJZ6jfGDc9yaR-10">
          <mxGeometry width="50" height="50" relative="1" as="geometry">
            <mxPoint x="-40" y="640" as="sourcePoint" />
            <mxPoint x="160" y="710" as="targetPoint" />
            <Array as="points">
              <mxPoint x="80" y="703" />
              <mxPoint x="80" y="658" />
            </Array>
          </mxGeometry>
        </mxCell>
        <mxCell id="PySuD5hHJZ6jfGDc9yaR-10" value="" style="shape=trapezoid;perimeter=trapezoidPerimeter;whiteSpace=wrap;html=1;fixedSize=1;rotation=90;" vertex="1" parent="1">
          <mxGeometry x="80" y="627.5" width="70" height="25" as="geometry" />
        </mxCell>
        <mxCell id="PySuD5hHJZ6jfGDc9yaR-11" value="" style="endArrow=classic;html=1;rounded=0;entryX=0.25;entryY=1;entryDx=0;entryDy=0;exitX=0.993;exitY=0.411;exitDx=0;exitDy=0;exitPerimeter=0;" edge="1" parent="1" source="PySuD5hHJZ6jfGDc9yaR-12" target="PySuD5hHJZ6jfGDc9yaR-10">
          <mxGeometry width="50" height="50" relative="1" as="geometry">
            <mxPoint x="80" y="620" as="sourcePoint" />
            <mxPoint x="60" y="630" as="targetPoint" />
          </mxGeometry>
        </mxCell>
        <mxCell id="PySuD5hHJZ6jfGDc9yaR-12" value="&lt;font style=&quot;font-size: 16px;&quot;&gt;0&lt;/font&gt;" style="text;html=1;align=center;verticalAlign=middle;resizable=0;points=[];autosize=1;strokeColor=none;fillColor=none;" vertex="1" parent="1">
          <mxGeometry x="50" y="610" width="30" height="30" as="geometry" />
        </mxCell>
        <mxCell id="PySuD5hHJZ6jfGDc9yaR-14" value="" style="endArrow=classic;html=1;rounded=0;exitX=0.5;exitY=0;exitDx=0;exitDy=0;entryX=-0.008;entryY=0.494;entryDx=0;entryDy=0;entryPerimeter=0;" edge="1" parent="1" source="PySuD5hHJZ6jfGDc9yaR-10" target="UtbIzWJ--JyeVw-dWGCM-7">
          <mxGeometry width="50" height="50" relative="1" as="geometry">
            <mxPoint x="10" y="670" as="sourcePoint" />
            <mxPoint x="60" y="620" as="targetPoint" />
          </mxGeometry>
        </mxCell>
        <mxCell id="PySuD5hHJZ6jfGDc9yaR-15" value="" style="shape=waypoint;sketch=0;fillStyle=solid;size=6;pointerEvents=1;points=[];fillColor=none;resizable=0;rotatable=0;perimeter=centerPerimeter;snapToPoint=1;" vertex="1" parent="1">
          <mxGeometry x="5" y="620" width="20" height="20" as="geometry" />
        </mxCell>
        <mxCell id="PySuD5hHJZ6jfGDc9yaR-16" value="" style="endArrow=none;html=1;rounded=0;exitX=0.795;exitY=0.45;exitDx=0;exitDy=0;exitPerimeter=0;entryX=0.321;entryY=0.593;entryDx=0;entryDy=0;entryPerimeter=0;" edge="1" parent="1" source="NpqvpwmYFH9KsZ0MOtwq-33" target="PySuD5hHJZ6jfGDc9yaR-15">
          <mxGeometry width="50" height="50" relative="1" as="geometry">
            <mxPoint x="-70" y="700" as="sourcePoint" />
            <mxPoint x="-20" y="650" as="targetPoint" />
            <Array as="points">
              <mxPoint x="15" y="650" />
            </Array>
          </mxGeometry>
        </mxCell>
        <mxCell id="PySuD5hHJZ6jfGDc9yaR-17" value="" style="endArrow=classic;html=1;rounded=0;exitX=0.321;exitY=0.507;exitDx=0;exitDy=0;exitPerimeter=0;entryX=0.175;entryY=0.25;entryDx=0;entryDy=0;entryPerimeter=0;" edge="1" parent="1" source="PySuD5hHJZ6jfGDc9yaR-15" target="NpqvpwmYFH9KsZ0MOtwq-43">
          <mxGeometry width="50" height="50" relative="1" as="geometry">
            <mxPoint x="-70" y="700" as="sourcePoint" />
            <mxPoint x="-20" y="650" as="targetPoint" />
            <Array as="points">
              <mxPoint x="15" y="571" />
            </Array>
          </mxGeometry>
        </mxCell>
        <mxCell id="PySuD5hHJZ6jfGDc9yaR-19" value="&lt;b&gt;&lt;font style=&quot;font-size: 16px;&quot;&gt;DP_BRAM_HIST&lt;/font&gt;&lt;/b&gt;" style="rounded=0;whiteSpace=wrap;html=1;" vertex="1" parent="1">
          <mxGeometry x="560" y="360" width="240" height="310" as="geometry" />
        </mxCell>
        <mxCell id="PySuD5hHJZ6jfGDc9yaR-20" value="clk_A" style="text;html=1;align=left;verticalAlign=middle;resizable=0;points=[];autosize=1;strokeColor=none;fillColor=none;fontStyle=1" vertex="1" parent="1">
          <mxGeometry x="560" y="380" width="60" height="30" as="geometry" />
        </mxCell>
        <mxCell id="PySuD5hHJZ6jfGDc9yaR-21" value="addr_A" style="text;html=1;align=left;verticalAlign=middle;resizable=0;points=[];autosize=1;strokeColor=none;fillColor=none;fontStyle=1" vertex="1" parent="1">
          <mxGeometry x="560" y="400" width="60" height="30" as="geometry" />
        </mxCell>
        <mxCell id="PySuD5hHJZ6jfGDc9yaR-22" value="wr_en_A" style="text;html=1;align=left;verticalAlign=middle;resizable=0;points=[];autosize=1;strokeColor=none;fillColor=none;fontStyle=1" vertex="1" parent="1">
          <mxGeometry x="560" y="420" width="70" height="30" as="geometry" />
        </mxCell>
        <mxCell id="PySuD5hHJZ6jfGDc9yaR-23" value="en_A" style="text;html=1;align=left;verticalAlign=middle;resizable=0;points=[];autosize=1;strokeColor=none;fillColor=none;fontStyle=1" vertex="1" parent="1">
          <mxGeometry x="560" y="440" width="50" height="30" as="geometry" />
        </mxCell>
        <mxCell id="PySuD5hHJZ6jfGDc9yaR-24" value="din_A" style="text;html=1;align=left;verticalAlign=middle;resizable=0;points=[];autosize=1;strokeColor=none;fillColor=none;fontStyle=1" vertex="1" parent="1">
          <mxGeometry x="560" y="460" width="60" height="30" as="geometry" />
        </mxCell>
        <mxCell id="PySuD5hHJZ6jfGDc9yaR-25" value="" style="endArrow=classic;html=1;rounded=0;exitX=0.333;exitY=0.775;exitDx=0;exitDy=0;exitPerimeter=0;" edge="1" parent="1" source="NpqvpwmYFH9KsZ0MOtwq-9">
          <mxGeometry width="50" height="50" relative="1" as="geometry">
            <mxPoint x="320" y="580" as="sourcePoint" />
            <mxPoint x="560" y="395" as="targetPoint" />
            <Array as="points">
              <mxPoint x="80" y="320" />
              <mxPoint x="520" y="320" />
              <mxPoint x="520" y="395" />
            </Array>
          </mxGeometry>
        </mxCell>
        <mxCell id="PySuD5hHJZ6jfGDc9yaR-26" value="" style="endArrow=none;html=1;rounded=0;exitX=0.625;exitY=0.65;exitDx=0;exitDy=0;exitPerimeter=0;entryX=0.445;entryY=0.573;entryDx=0;entryDy=0;entryPerimeter=0;" edge="1" parent="1" source="NpqvpwmYFH9KsZ0MOtwq-20" target="PySuD5hHJZ6jfGDc9yaR-28">
          <mxGeometry width="50" height="50" relative="1" as="geometry">
            <mxPoint x="420" y="670" as="sourcePoint" />
            <mxPoint x="-130" y="460" as="targetPoint" />
          </mxGeometry>
        </mxCell>
        <mxCell id="PySuD5hHJZ6jfGDc9yaR-29" value="" style="endArrow=classic;html=1;rounded=0;entryX=0.806;entryY=1.004;entryDx=0;entryDy=0;entryPerimeter=0;" edge="1" parent="1" source="PySuD5hHJZ6jfGDc9yaR-28" target="NpqvpwmYFH9KsZ0MOtwq-3">
          <mxGeometry width="50" height="50" relative="1" as="geometry">
            <mxPoint x="-130" y="450" as="sourcePoint" />
            <mxPoint y="420" as="targetPoint" />
            <Array as="points" />
          </mxGeometry>
        </mxCell>
        <mxCell id="PySuD5hHJZ6jfGDc9yaR-30" value="" style="endArrow=classic;html=1;rounded=0;entryDx=0;entryDy=0;entryPerimeter=0;" edge="1" parent="1" target="PySuD5hHJZ6jfGDc9yaR-28">
          <mxGeometry width="50" height="50" relative="1" as="geometry">
            <mxPoint x="-130" y="450" as="sourcePoint" />
            <mxPoint x="-91" y="450" as="targetPoint" />
            <Array as="points" />
          </mxGeometry>
        </mxCell>
        <mxCell id="PySuD5hHJZ6jfGDc9yaR-28" value="" style="shape=waypoint;sketch=0;fillStyle=solid;size=6;pointerEvents=1;points=[];fillColor=none;resizable=0;rotatable=0;perimeter=centerPerimeter;snapToPoint=1;" vertex="1" parent="1">
          <mxGeometry x="-140" y="440" width="20" height="20" as="geometry" />
        </mxCell>
        <mxCell id="PySuD5hHJZ6jfGDc9yaR-32" value="" style="endArrow=classic;html=1;rounded=0;exitX=0.678;exitY=0.364;exitDx=0;exitDy=0;exitPerimeter=0;" edge="1" parent="1" source="PySuD5hHJZ6jfGDc9yaR-28">
          <mxGeometry width="50" height="50" relative="1" as="geometry">
            <mxPoint x="-20" y="430" as="sourcePoint" />
            <mxPoint x="560" y="415" as="targetPoint" />
            <Array as="points">
              <mxPoint x="-130" y="280" />
              <mxPoint x="480" y="280" />
              <mxPoint x="480" y="415" />
            </Array>
          </mxGeometry>
        </mxCell>
        <mxCell id="PySuD5hHJZ6jfGDc9yaR-33" value="" style="shape=waypoint;sketch=0;fillStyle=solid;size=6;pointerEvents=1;points=[];fillColor=none;resizable=0;rotatable=0;perimeter=centerPerimeter;snapToPoint=1;" vertex="1" parent="1">
          <mxGeometry x="40" y="620" width="20" height="20" as="geometry" />
        </mxCell>
        <mxCell id="PySuD5hHJZ6jfGDc9yaR-35" value="" style="endArrow=none;html=1;rounded=0;exitX=0.294;exitY=0.394;exitDx=0;exitDy=0;exitPerimeter=0;" edge="1" parent="1" source="PySuD5hHJZ6jfGDc9yaR-15" target="PySuD5hHJZ6jfGDc9yaR-33">
          <mxGeometry width="50" height="50" relative="1" as="geometry">
            <mxPoint x="180" y="630" as="sourcePoint" />
            <mxPoint x="230" y="580" as="targetPoint" />
          </mxGeometry>
        </mxCell>
        <mxCell id="PySuD5hHJZ6jfGDc9yaR-36" value="" style="endArrow=classic;html=1;rounded=0;exitX=0.35;exitY=0.45;exitDx=0;exitDy=0;exitPerimeter=0;entryX=0;entryY=0.5;entryDx=0;entryDy=0;" edge="1" parent="1" source="PySuD5hHJZ6jfGDc9yaR-33" target="PySuD5hHJZ6jfGDc9yaR-10">
          <mxGeometry width="50" height="50" relative="1" as="geometry">
            <mxPoint x="180" y="630" as="sourcePoint" />
            <mxPoint x="230" y="580" as="targetPoint" />
            <Array as="points">
              <mxPoint x="50" y="600" />
              <mxPoint x="115" y="600" />
            </Array>
          </mxGeometry>
        </mxCell>
        <mxCell id="PySuD5hHJZ6jfGDc9yaR-37" value="" style="endArrow=classic;html=1;rounded=0;entryX=0.005;entryY=0.494;entryDx=0;entryDy=0;entryPerimeter=0;" edge="1" parent="1" source="PySuD5hHJZ6jfGDc9yaR-33" target="PySuD5hHJZ6jfGDc9yaR-22">
          <mxGeometry width="50" height="50" relative="1" as="geometry">
            <mxPoint x="180" y="630" as="sourcePoint" />
            <mxPoint x="230" y="580" as="targetPoint" />
            <Array as="points">
              <mxPoint x="50" y="760" />
              <mxPoint x="480" y="760" />
              <mxPoint x="480" y="435" />
            </Array>
          </mxGeometry>
        </mxCell>
        <mxCell id="PySuD5hHJZ6jfGDc9yaR-38" value="" style="endArrow=classic;html=1;rounded=0;entryX=0.012;entryY=0.52;entryDx=0;entryDy=0;entryPerimeter=0;" edge="1" parent="1" target="PySuD5hHJZ6jfGDc9yaR-23">
          <mxGeometry width="50" height="50" relative="1" as="geometry">
            <mxPoint x="500" y="456" as="sourcePoint" />
            <mxPoint x="670" y="460" as="targetPoint" />
          </mxGeometry>
        </mxCell>
        <mxCell id="PySuD5hHJZ6jfGDc9yaR-39" value="~i_apb_read" style="text;html=1;align=center;verticalAlign=middle;resizable=0;points=[];autosize=1;strokeColor=none;fillColor=none;" vertex="1" parent="1">
          <mxGeometry x="470" y="430" width="90" height="30" as="geometry" />
        </mxCell>
        <mxCell id="PySuD5hHJZ6jfGDc9yaR-40" value="" style="shape=waypoint;sketch=0;fillStyle=solid;size=6;pointerEvents=1;points=[];fillColor=none;resizable=0;rotatable=0;perimeter=centerPerimeter;snapToPoint=1;" vertex="1" parent="1">
          <mxGeometry x="430" y="465" width="20" height="20" as="geometry" />
        </mxCell>
        <mxCell id="PySuD5hHJZ6jfGDc9yaR-41" value="" style="endArrow=none;html=1;rounded=0;exitX=0.45;exitY=0.65;exitDx=0;exitDy=0;exitPerimeter=0;" edge="1" parent="1" source="PySuD5hHJZ6jfGDc9yaR-40">
          <mxGeometry width="50" height="50" relative="1" as="geometry">
            <mxPoint x="870" y="440" as="sourcePoint" />
            <mxPoint x="400" y="415" as="targetPoint" />
            <Array as="points">
              <mxPoint x="440" y="415" />
            </Array>
          </mxGeometry>
        </mxCell>
        <mxCell id="PySuD5hHJZ6jfGDc9yaR-42" value="" style="endArrow=classic;html=1;rounded=0;exitX=0.333;exitY=0.858;exitDx=0;exitDy=0;exitPerimeter=0;entryX=0.25;entryY=0;entryDx=0;entryDy=0;" edge="1" parent="1" source="PySuD5hHJZ6jfGDc9yaR-40" target="PySuD5hHJZ6jfGDc9yaR-1">
          <mxGeometry width="50" height="50" relative="1" as="geometry">
            <mxPoint x="370" y="500" as="sourcePoint" />
            <mxPoint x="420" y="450" as="targetPoint" />
            <Array as="points">
              <mxPoint x="440" y="690" />
            </Array>
          </mxGeometry>
        </mxCell>
        <mxCell id="PySuD5hHJZ6jfGDc9yaR-43" value="" style="endArrow=classic;html=1;rounded=0;exitX=0.833;exitY=0.733;exitDx=0;exitDy=0;exitPerimeter=0;" edge="1" parent="1" source="PySuD5hHJZ6jfGDc9yaR-40">
          <mxGeometry width="50" height="50" relative="1" as="geometry">
            <mxPoint x="370" y="500" as="sourcePoint" />
            <mxPoint x="560" y="475" as="targetPoint" />
          </mxGeometry>
        </mxCell>
        <mxCell id="PySuD5hHJZ6jfGDc9yaR-44" value="clk_B" style="text;html=1;align=left;verticalAlign=middle;resizable=0;points=[];autosize=1;strokeColor=none;fillColor=none;fontStyle=1" vertex="1" parent="1">
          <mxGeometry x="560" y="585" width="60" height="30" as="geometry" />
        </mxCell>
        <mxCell id="PySuD5hHJZ6jfGDc9yaR-45" value="addr_B" style="text;html=1;align=left;verticalAlign=middle;resizable=0;points=[];autosize=1;strokeColor=none;fillColor=none;fontStyle=1" vertex="1" parent="1">
          <mxGeometry x="560" y="615" width="60" height="30" as="geometry" />
        </mxCell>
        <mxCell id="PySuD5hHJZ6jfGDc9yaR-46" value="dout_B" style="text;html=1;align=right;verticalAlign=middle;resizable=0;points=[];autosize=1;strokeColor=none;fillColor=none;fontStyle=1" vertex="1" parent="1">
          <mxGeometry x="740" y="592.25" width="60" height="30" as="geometry" />
        </mxCell>
        <mxCell id="PySuD5hHJZ6jfGDc9yaR-47" value="" style="endArrow=classic;html=1;rounded=0;entryX=0.001;entryY=0.775;entryDx=0;entryDy=0;entryPerimeter=0;" edge="1" parent="1" target="PySuD5hHJZ6jfGDc9yaR-19">
          <mxGeometry width="50" height="50" relative="1" as="geometry">
            <mxPoint x="500" y="600" as="sourcePoint" />
            <mxPoint x="410" y="310" as="targetPoint" />
          </mxGeometry>
        </mxCell>
        <mxCell id="PySuD5hHJZ6jfGDc9yaR-48" value="i_apb_clk" style="text;html=1;align=center;verticalAlign=middle;resizable=0;points=[];autosize=1;strokeColor=none;fillColor=none;" vertex="1" parent="1">
          <mxGeometry x="480" y="570" width="70" height="30" as="geometry" />
        </mxCell>
        <mxCell id="PySuD5hHJZ6jfGDc9yaR-49" value="" style="endArrow=classic;html=1;rounded=0;" edge="1" parent="1">
          <mxGeometry width="50" height="50" relative="1" as="geometry">
            <mxPoint x="500" y="630" as="sourcePoint" />
            <mxPoint x="560" y="630" as="targetPoint" />
          </mxGeometry>
        </mxCell>
        <mxCell id="PySuD5hHJZ6jfGDc9yaR-50" value="i_apb_addr" style="text;html=1;align=center;verticalAlign=middle;resizable=0;points=[];autosize=1;strokeColor=none;fillColor=none;" vertex="1" parent="1">
          <mxGeometry x="475" y="600" width="80" height="30" as="geometry" />
        </mxCell>
        <mxCell id="PySuD5hHJZ6jfGDc9yaR-51" value="" style="endArrow=classic;html=1;rounded=0;" edge="1" parent="1">
          <mxGeometry width="50" height="50" relative="1" as="geometry">
            <mxPoint x="800" y="610" as="sourcePoint" />
            <mxPoint x="870" y="610" as="targetPoint" />
          </mxGeometry>
        </mxCell>
        <mxCell id="PySuD5hHJZ6jfGDc9yaR-52" value="o_data" style="text;html=1;align=center;verticalAlign=middle;resizable=0;points=[];autosize=1;strokeColor=none;fillColor=none;" vertex="1" parent="1">
          <mxGeometry x="820" y="578" width="60" height="30" as="geometry" />
        </mxCell>
      </root>
    </mxGraphModel>
  </diagram>
</mxfile>
